<svg width="128" height="128" viewBox="0 0 128 128" fill="none" xmlns="http://www.w3.org/2000/svg">
<g clip-path="url(#clip0_15_2)">
<path d="M112 0H16C7.16344 0 0 7.16344 0 16V112C0 120.837 7.16344 128 16 128H112C120.837 128 128 120.837 128 112V16C128 7.16344 120.837 0 112 0Z" fill="url(#paint0_linear_15_2)"/>
<path d="M82.52 6H14.48C10.9012 6 8 8.37289 8 11.3V53.7C8 56.6271 10.9012 59 14.48 59H82.52C86.0988 59 89 56.6271 89 53.7V11.3C89 8.37289 86.0988 6 82.52 6Z" fill="url(#paint1_linear_15_2)"/>
<path d="M38.2715 26H35.8018V21.2363C35.8018 20.2285 35.749 19.5781 35.6436 19.2852C35.5381 18.9863 35.3652 18.7549 35.125 18.5908C34.8906 18.4268 34.6064 18.3447 34.2725 18.3447C33.8447 18.3447 33.4609 18.4619 33.1211 18.6963C32.7812 18.9307 32.5469 19.2412 32.418 19.6279C32.2949 20.0146 32.2334 20.7295 32.2334 21.7725V26H29.7637V16.666H32.0576V18.0371C32.8721 16.9824 33.8975 16.4551 35.1338 16.4551C35.6787 16.4551 36.1768 16.5547 36.6279 16.7539C37.0791 16.9473 37.4189 17.1963 37.6475 17.501C37.8818 17.8057 38.043 18.1514 38.1309 18.5381C38.2246 18.9248 38.2715 19.4785 38.2715 20.1992V26ZM40.7148 16.666H43.0176V18.0371C43.3164 17.5684 43.7207 17.1875 44.2305 16.8945C44.7402 16.6016 45.3057 16.4551 45.9268 16.4551C47.0107 16.4551 47.9307 16.8799 48.6865 17.7295C49.4424 18.5791 49.8203 19.7627 49.8203 21.2803C49.8203 22.8389 49.4395 24.0518 48.6777 24.9189C47.916 25.7803 46.9932 26.2109 45.9092 26.2109C45.3936 26.2109 44.9248 26.1084 44.5029 25.9033C44.0869 25.6982 43.6475 25.3467 43.1846 24.8486V29.5508H40.7148V16.666ZM43.1582 21.1748C43.1582 22.2236 43.3662 23 43.7822 23.5039C44.1982 24.002 44.7051 24.251 45.3027 24.251C45.877 24.251 46.3545 24.0225 46.7354 23.5654C47.1162 23.1025 47.3066 22.3467 47.3066 21.2979C47.3066 20.3193 47.1104 19.5928 46.7178 19.1182C46.3252 18.6436 45.8389 18.4062 45.2588 18.4062C44.6553 18.4062 44.1543 18.6406 43.7559 19.1094C43.3574 19.5723 43.1582 20.2607 43.1582 21.1748ZM51.6045 16.666H53.8809V17.9404C54.6953 16.9502 55.665 16.4551 56.79 16.4551C57.3877 16.4551 57.9062 16.5781 58.3457 16.8242C58.7852 17.0703 59.1455 17.4424 59.4268 17.9404C59.8369 17.4424 60.2793 17.0703 60.7539 16.8242C61.2285 16.5781 61.7354 16.4551 62.2744 16.4551C62.96 16.4551 63.54 16.5957 64.0146 16.877C64.4893 17.1523 64.8438 17.5596 65.0781 18.0986C65.248 18.4971 65.333 19.1416 65.333 20.0322V26H62.8633V20.665C62.8633 19.7393 62.7783 19.1416 62.6084 18.8721C62.3799 18.5205 62.0283 18.3447 61.5537 18.3447C61.208 18.3447 60.8828 18.4502 60.5781 18.6611C60.2734 18.8721 60.0537 19.1826 59.9189 19.5928C59.7842 19.9971 59.7168 20.6387 59.7168 21.5176V26H57.2471V20.8848C57.2471 19.9766 57.2031 19.3906 57.1152 19.127C57.0273 18.8633 56.8896 18.667 56.7021 18.5381C56.5205 18.4092 56.2715 18.3447 55.9551 18.3447C55.5742 18.3447 55.2314 18.4473 54.9268 18.6523C54.6221 18.8574 54.4023 19.1533 54.2676 19.54C54.1387 19.9268 54.0742 20.5684 54.0742 21.4648V26H51.6045V16.666Z" fill="white"/>
<path d="M32.708 39.666H35.0107V41.0371C35.3096 40.5684 35.7139 40.1875 36.2236 39.8945C36.7334 39.6016 37.2988 39.4551 37.9199 39.4551C39.0039 39.4551 39.9238 39.8799 40.6797 40.7295C41.4355 41.5791 41.8135 42.7627 41.8135 44.2803C41.8135 45.8389 41.4326 47.0518 40.6709 47.9189C39.9092 48.7803 38.9863 49.2109 37.9023 49.2109C37.3867 49.2109 36.918 49.1084 36.4961 48.9033C36.0801 48.6982 35.6406 48.3467 35.1777 47.8486V52.5508H32.708V39.666ZM35.1514 44.1748C35.1514 45.2236 35.3594 46 35.7754 46.5039C36.1914 47.002 36.6982 47.251 37.2959 47.251C37.8701 47.251 38.3477 47.0225 38.7285 46.5654C39.1094 46.1025 39.2998 45.3467 39.2998 44.2979C39.2998 43.3193 39.1035 42.5928 38.7109 42.1182C38.3184 41.6436 37.832 41.4062 37.252 41.4062C36.6484 41.4062 36.1475 41.6406 35.749 42.1094C35.3506 42.5723 35.1514 43.2607 35.1514 44.1748ZM43.6943 49V36.1152H46.1641V42.9531L49.0557 39.666H52.0967L48.9062 43.0762L52.3252 49H49.6621L47.3154 44.8076L46.1641 46.0117V49H43.6943ZM53.5732 49.6152L56.3945 49.958C56.4414 50.2861 56.5498 50.5117 56.7197 50.6348C56.9541 50.8105 57.3232 50.8984 57.8271 50.8984C58.4717 50.8984 58.9551 50.8018 59.2773 50.6084C59.4941 50.4795 59.6582 50.2715 59.7695 49.9844C59.8457 49.7793 59.8838 49.4014 59.8838 48.8506V47.4883C59.1455 48.4961 58.2139 49 57.0889 49C55.835 49 54.8418 48.4697 54.1094 47.4092C53.5352 46.5713 53.248 45.5283 53.248 44.2803C53.248 42.7158 53.623 41.5205 54.373 40.6943C55.1289 39.8682 56.0664 39.4551 57.1855 39.4551C58.3398 39.4551 59.292 39.9619 60.042 40.9756V39.666H62.3535V48.042C62.3535 49.1436 62.2627 49.9668 62.0811 50.5117C61.8994 51.0566 61.6445 51.4844 61.3164 51.7949C60.9883 52.1055 60.5488 52.3486 59.998 52.5244C59.4531 52.7002 58.7617 52.7881 57.9238 52.7881C56.3418 52.7881 55.2197 52.5156 54.5576 51.9707C53.8955 51.4316 53.5645 50.7461 53.5645 49.9141C53.5645 49.832 53.5674 49.7324 53.5732 49.6152ZM55.7793 44.1396C55.7793 45.1299 55.9697 45.8564 56.3506 46.3193C56.7373 46.7764 57.2119 47.0049 57.7744 47.0049C58.3779 47.0049 58.8877 46.7705 59.3037 46.3018C59.7197 45.8271 59.9277 45.127 59.9277 44.2012C59.9277 43.2344 59.7285 42.5166 59.3301 42.0479C58.9316 41.5791 58.4277 41.3447 57.8184 41.3447C57.2266 41.3447 56.7373 41.5762 56.3506 42.0391C55.9697 42.4961 55.7793 43.1963 55.7793 44.1396Z" fill="white"/>
<path d="M95 33.75H112.143V25L125 37.5L112.143 50V41.25H95V33.75Z" fill="#4EC9B0"/>
<path d="M13.6236 65.3636V77H12.2145V66.8409H12.1463L9.3054 68.7273V67.2955L12.2145 65.3636H13.6236ZM17.2827 77.0909C17.0024 77.0909 16.7618 76.9905 16.5611 76.7898C16.3603 76.589 16.2599 76.3485 16.2599 76.0682C16.2599 75.7879 16.3603 75.5473 16.5611 75.3466C16.7618 75.1458 17.0024 75.0455 17.2827 75.0455C17.563 75.0455 17.8035 75.1458 18.0043 75.3466C18.205 75.5473 18.3054 75.7879 18.3054 76.0682C18.3054 76.2538 18.258 76.4242 18.1634 76.5795C18.0724 76.7348 17.9493 76.8598 17.794 76.9545C17.6425 77.0455 17.4721 77.0909 17.2827 77.0909ZM24.0781 77.1591C23.2221 77.1591 22.4929 76.9261 21.8906 76.4602C21.2884 75.9905 20.8281 75.3106 20.5099 74.4205C20.1918 73.5265 20.0327 72.447 20.0327 71.1818C20.0327 69.9242 20.1918 68.8504 20.5099 67.9602C20.8319 67.0663 21.294 66.3845 21.8963 65.9148C22.5024 65.4413 23.2296 65.2045 24.0781 65.2045C24.9266 65.2045 25.652 65.4413 26.2543 65.9148C26.8603 66.3845 27.3224 67.0663 27.6406 67.9602C27.9626 68.8504 28.1236 69.9242 28.1236 71.1818C28.1236 72.447 27.9645 73.5265 27.6463 74.4205C27.3281 75.3106 26.8679 75.9905 26.2656 76.4602C25.6634 76.9261 24.9342 77.1591 24.0781 77.1591ZM24.0781 75.9091C24.9266 75.9091 25.5857 75.5 26.0554 74.6818C26.5251 73.8636 26.7599 72.697 26.7599 71.1818C26.7599 70.1742 26.652 69.3163 26.4361 68.608C26.224 67.8996 25.9171 67.3598 25.5156 66.9886C25.1179 66.6174 24.6387 66.4318 24.0781 66.4318C23.2372 66.4318 22.58 66.8466 22.1065 67.6761C21.633 68.5019 21.3963 69.6705 21.3963 71.1818C21.3963 72.1894 21.5024 73.0455 21.7145 73.75C21.9266 74.4545 22.2315 74.9905 22.6293 75.358C23.0308 75.7254 23.5137 75.9091 24.0781 75.9091ZM30.8764 77.0909C30.5961 77.0909 30.3556 76.9905 30.1548 76.7898C29.9541 76.589 29.8537 76.3485 29.8537 76.0682C29.8537 75.7879 29.9541 75.5473 30.1548 75.3466C30.3556 75.1458 30.5961 75.0455 30.8764 75.0455C31.1567 75.0455 31.3973 75.1458 31.598 75.3466C31.7988 75.5473 31.8991 75.7879 31.8991 76.0682C31.8991 76.2538 31.8518 76.4242 31.7571 76.5795C31.6662 76.7348 31.5431 76.8598 31.3878 76.9545C31.2363 77.0455 31.0658 77.0909 30.8764 77.0909ZM37.6719 77.1591C36.8158 77.1591 36.0866 76.9261 35.4844 76.4602C34.8821 75.9905 34.4219 75.3106 34.1037 74.4205C33.7855 73.5265 33.6264 72.447 33.6264 71.1818C33.6264 69.9242 33.7855 68.8504 34.1037 67.9602C34.4257 67.0663 34.8878 66.3845 35.4901 65.9148C36.0961 65.4413 36.8234 65.2045 37.6719 65.2045C38.5204 65.2045 39.2457 65.4413 39.848 65.9148C40.4541 66.3845 40.9162 67.0663 41.2344 67.9602C41.5563 68.8504 41.7173 69.9242 41.7173 71.1818C41.7173 72.447 41.5582 73.5265 41.2401 74.4205C40.9219 75.3106 40.4616 75.9905 39.8594 76.4602C39.2571 76.9261 38.5279 77.1591 37.6719 77.1591ZM37.6719 75.9091C38.5204 75.9091 39.1795 75.5 39.6491 74.6818C40.1188 73.8636 40.3537 72.697 40.3537 71.1818C40.3537 70.1742 40.2457 69.3163 40.0298 68.608C39.8177 67.8996 39.5109 67.3598 39.1094 66.9886C38.7116 66.6174 38.2325 66.4318 37.6719 66.4318C36.831 66.4318 36.1738 66.8466 35.7003 67.6761C35.2268 68.5019 34.9901 69.6705 34.9901 71.1818C34.9901 72.1894 35.0961 73.0455 35.3082 73.75C35.5204 74.4545 35.8253 74.9905 36.223 75.358C36.6245 75.7254 37.1075 75.9091 37.6719 75.9091Z" fill="#6CB6FF"/>
<path d="M79.9929 76.2727L79.1179 75.4091L82.7202 71.8068H73.3906V70.5568H82.7202L79.1179 66.9659L79.9929 66.0909L85.0838 71.1818L79.9929 76.2727ZM92.3608 77V75.9773L96.2017 71.7727C96.6525 71.2803 97.0237 70.8523 97.3153 70.4886C97.607 70.1212 97.8229 69.7765 97.9631 69.4545C98.107 69.1288 98.179 68.7879 98.179 68.4318C98.179 68.0227 98.0805 67.6686 97.8835 67.3693C97.6903 67.0701 97.4252 66.839 97.0881 66.6761C96.7509 66.5133 96.3722 66.4318 95.9517 66.4318C95.5047 66.4318 95.1146 66.5246 94.7812 66.7102C94.4517 66.892 94.196 67.1477 94.0142 67.4773C93.8362 67.8068 93.7472 68.1932 93.7472 68.6364H92.4062C92.4062 67.9545 92.5634 67.3561 92.8778 66.8409C93.1922 66.3258 93.6203 65.9242 94.1619 65.6364C94.7074 65.3485 95.3191 65.2045 95.9972 65.2045C96.679 65.2045 97.2831 65.3485 97.8097 65.6364C98.3362 65.9242 98.7491 66.3125 99.0483 66.8011C99.3475 67.2898 99.4972 67.8333 99.4972 68.4318C99.4972 68.8598 99.4195 69.2784 99.2642 69.6875C99.1127 70.0928 98.8475 70.5455 98.4688 71.0455C98.0938 71.5417 97.5729 72.1477 96.9062 72.8636L94.2926 75.6591V75.75H99.7017V77H92.3608ZM103.048 77.0909C102.768 77.0909 102.527 76.9905 102.327 76.7898C102.126 76.589 102.026 76.3485 102.026 76.0682C102.026 75.7879 102.126 75.5473 102.327 75.3466C102.527 75.1458 102.768 75.0455 103.048 75.0455C103.329 75.0455 103.569 75.1458 103.77 75.3466C103.971 75.5473 104.071 75.7879 104.071 76.0682C104.071 76.2538 104.024 76.4242 103.929 76.5795C103.838 76.7348 103.715 76.8598 103.56 76.9545C103.408 77.0455 103.238 77.0909 103.048 77.0909ZM109.155 65.3636V77H107.746V66.8409H107.678L104.837 68.7273V67.2955L107.746 65.3636H109.155ZM112.814 77.0909C112.534 77.0909 112.293 76.9905 112.092 76.7898C111.892 76.589 111.791 76.3485 111.791 76.0682C111.791 75.7879 111.892 75.5473 112.092 75.3466C112.293 75.1458 112.534 75.0455 112.814 75.0455C113.094 75.0455 113.335 75.1458 113.536 75.3466C113.736 75.5473 113.837 75.7879 113.837 76.0682C113.837 76.2538 113.789 76.4242 113.695 76.5795C113.604 76.7348 113.481 76.8598 113.325 76.9545C113.174 77.0455 113.003 77.0909 112.814 77.0909ZM119.609 77.1591C118.753 77.1591 118.024 76.9261 117.422 76.4602C116.82 75.9905 116.359 75.3106 116.041 74.4205C115.723 73.5265 115.564 72.447 115.564 71.1818C115.564 69.9242 115.723 68.8504 116.041 67.9602C116.363 67.0663 116.825 66.3845 117.428 65.9148C118.034 65.4413 118.761 65.2045 119.609 65.2045C120.458 65.2045 121.183 65.4413 121.786 65.9148C122.392 66.3845 122.854 67.0663 123.172 67.9602C123.494 68.8504 123.655 69.9242 123.655 71.1818C123.655 72.447 123.496 73.5265 123.178 74.4205C122.859 75.3106 122.399 75.9905 121.797 76.4602C121.195 76.9261 120.465 77.1591 119.609 77.1591ZM119.609 75.9091C120.458 75.9091 121.117 75.5 121.587 74.6818C122.056 73.8636 122.291 72.697 122.291 71.1818C122.291 70.1742 122.183 69.3163 121.967 68.608C121.755 67.8996 121.448 67.3598 121.047 66.9886C120.649 66.6174 120.17 66.4318 119.609 66.4318C118.768 66.4318 118.111 66.8466 117.638 67.6761C117.164 68.5019 116.928 69.6705 116.928 71.1818C116.928 72.1894 117.034 73.0455 117.246 73.75C117.458 74.4545 117.763 74.9905 118.161 75.358C118.562 75.7254 119.045 75.9091 119.609 75.9091Z" fill="#FFA500"/>
<path d="M46 68H58L52 76L46 68Z" fill="white"/>
<rect x="9.5" y="83.5" width="87" height="79" fill="black" stroke="white" stroke-width="3"/>
<path d="M23.397 94.3636V106H21.9879V95.8409H21.9197L19.0788 97.7273V96.2955L21.9879 94.3636H23.397ZM27.0561 106.091C26.7758 106.091 26.5353 105.991 26.3345 105.79C26.1338 105.589 26.0334 105.348 26.0334 105.068C26.0334 104.788 26.1338 104.547 26.3345 104.347C26.5353 104.146 26.7758 104.045 27.0561 104.045C27.3364 104.045 27.5769 104.146 27.7777 104.347C27.9785 104.547 28.0788 104.788 28.0788 105.068C28.0788 105.254 28.0315 105.424 27.9368 105.58C27.8459 105.735 27.7228 105.86 27.5675 105.955C27.416 106.045 27.2455 106.091 27.0561 106.091ZM33.8516 106.159C32.9955 106.159 32.2663 105.926 31.6641 105.46C31.0618 104.991 30.6016 104.311 30.2834 103.42C29.9652 102.527 29.8061 101.447 29.8061 100.182C29.8061 98.9242 29.9652 97.8504 30.2834 96.9602C30.6054 96.0663 31.0675 95.3845 31.6697 94.9148C32.2758 94.4413 33.0031 94.2045 33.8516 94.2045C34.7 94.2045 35.4254 94.4413 36.0277 94.9148C36.6338 95.3845 37.0959 96.0663 37.4141 96.9602C37.736 97.8504 37.897 98.9242 37.897 100.182C37.897 101.447 37.7379 102.527 37.4197 103.42C37.1016 104.311 36.6413 104.991 36.0391 105.46C35.4368 105.926 34.7076 106.159 33.8516 106.159ZM33.8516 104.909C34.7 104.909 35.3591 104.5 35.8288 103.682C36.2985 102.864 36.5334 101.697 36.5334 100.182C36.5334 99.1742 36.4254 98.3163 36.2095 97.608C35.9974 96.8996 35.6906 96.3598 35.2891 95.9886C34.8913 95.6174 34.4122 95.4318 33.8516 95.4318C33.0107 95.4318 32.3535 95.8466 31.88 96.6761C31.4065 97.5019 31.1697 98.6705 31.1697 100.182C31.1697 101.189 31.2758 102.045 31.4879 102.75C31.7 103.455 32.005 103.991 32.4027 104.358C32.8042 104.725 33.2872 104.909 33.8516 104.909ZM40.6499 106.091C40.3696 106.091 40.129 105.991 39.9283 105.79C39.7275 105.589 39.6271 105.348 39.6271 105.068C39.6271 104.788 39.7275 104.547 39.9283 104.347C40.129 104.146 40.3696 104.045 40.6499 104.045C40.9302 104.045 41.1707 104.146 41.3714 104.347C41.5722 104.547 41.6726 104.788 41.6726 105.068C41.6726 105.254 41.6252 105.424 41.5305 105.58C41.4396 105.735 41.3165 105.86 41.1612 105.955C41.0097 106.045 40.8393 106.091 40.6499 106.091ZM46.7564 94.3636V106H45.3473V95.8409H45.2791L42.4382 97.7273V96.2955L45.3473 94.3636H46.7564Z" fill="#6CB6FF"/>
<path d="M23.6705 113.364V125H22.2614V114.841H22.1932L19.3523 116.727V115.295L22.2614 113.364H23.6705ZM27.3295 125.091C27.0492 125.091 26.8087 124.991 26.608 124.79C26.4072 124.589 26.3068 124.348 26.3068 124.068C26.3068 123.788 26.4072 123.547 26.608 123.347C26.8087 123.146 27.0492 123.045 27.3295 123.045C27.6098 123.045 27.8504 123.146 28.0511 123.347C28.2519 123.547 28.3523 123.788 28.3523 124.068C28.3523 124.254 28.3049 124.424 28.2102 124.58C28.1193 124.735 27.9962 124.86 27.8409 124.955C27.6894 125.045 27.5189 125.091 27.3295 125.091ZM34.125 125.159C33.2689 125.159 32.5398 124.926 31.9375 124.46C31.3352 123.991 30.875 123.311 30.5568 122.42C30.2386 121.527 30.0795 120.447 30.0795 119.182C30.0795 117.924 30.2386 116.85 30.5568 115.96C30.8788 115.066 31.3409 114.384 31.9432 113.915C32.5492 113.441 33.2765 113.205 34.125 113.205C34.9735 113.205 35.6989 113.441 36.3011 113.915C36.9072 114.384 37.3693 115.066 37.6875 115.96C38.0095 116.85 38.1705 117.924 38.1705 119.182C38.1705 120.447 38.0114 121.527 37.6932 122.42C37.375 123.311 36.9148 123.991 36.3125 124.46C35.7102 124.926 34.9811 125.159 34.125 125.159ZM34.125 123.909C34.9735 123.909 35.6326 123.5 36.1023 122.682C36.572 121.864 36.8068 120.697 36.8068 119.182C36.8068 118.174 36.6989 117.316 36.483 116.608C36.2708 115.9 35.964 115.36 35.5625 114.989C35.1648 114.617 34.6856 114.432 34.125 114.432C33.2841 114.432 32.6269 114.847 32.1534 115.676C31.6799 116.502 31.4432 117.67 31.4432 119.182C31.4432 120.189 31.5492 121.045 31.7614 121.75C31.9735 122.455 32.2784 122.991 32.6761 123.358C33.0777 123.725 33.5606 123.909 34.125 123.909ZM40.9233 125.091C40.643 125.091 40.4025 124.991 40.2017 124.79C40.0009 124.589 39.9006 124.348 39.9006 124.068C39.9006 123.788 40.0009 123.547 40.2017 123.347C40.4025 123.146 40.643 123.045 40.9233 123.045C41.2036 123.045 41.4441 123.146 41.6449 123.347C41.8456 123.547 41.946 123.788 41.946 124.068C41.946 124.254 41.8987 124.424 41.804 124.58C41.7131 124.735 41.59 124.86 41.4347 124.955C41.2831 125.045 41.1127 125.091 40.9233 125.091ZM47.7315 125.159C47.0649 125.159 46.4645 125.027 45.9304 124.761C45.3963 124.496 44.9683 124.133 44.6463 123.67C44.3243 123.208 44.1482 122.682 44.1179 122.091H45.4815C45.5346 122.617 45.7732 123.053 46.1974 123.398C46.6255 123.739 47.1368 123.909 47.7315 123.909C48.2088 123.909 48.633 123.797 49.0043 123.574C49.3793 123.35 49.6728 123.044 49.8849 122.653C50.1009 122.259 50.2088 121.814 50.2088 121.318C50.2088 120.811 50.0971 120.358 49.8736 119.96C49.6539 119.559 49.3509 119.242 48.9645 119.011C48.5781 118.78 48.1368 118.663 47.6406 118.659C47.2846 118.655 46.919 118.71 46.544 118.824C46.169 118.934 45.8603 119.076 45.6179 119.25L44.2997 119.091L45.0043 113.364H51.0497V114.614H46.1861L45.777 118.045H45.8452C46.0838 117.856 46.383 117.699 46.7429 117.574C47.1027 117.449 47.4777 117.386 47.8679 117.386C48.58 117.386 49.2145 117.557 49.7713 117.898C50.3319 118.235 50.7713 118.697 51.0895 119.284C51.4115 119.871 51.5724 120.542 51.5724 121.295C51.5724 122.038 51.4058 122.701 51.0724 123.284C50.7429 123.864 50.2884 124.322 49.7088 124.659C49.1293 124.992 48.4702 125.159 47.7315 125.159Z" fill="#6CB6FF"/>
</g>
<defs>
<linearGradient id="paint0_linear_15_2" x1="0" y1="0" x2="12800" y2="12800" gradientUnits="userSpaceOnUse">
<stop stop-color="#1A1A2E"/>
<stop offset="1" stop-color="#16213E"/>
</linearGradient>
<linearGradient id="paint1_linear_15_2" x1="8" y1="6" x2="8108" y2="6" gradientUnits="userSpaceOnUse">
<stop stop-color="#CB3837"/>
<stop offset="1" stop-color="#E53935"/>
</linearGradient>
<clipPath id="clip0_15_2">
<rect width="128" height="128" fill="white"/>
</clipPath>
</defs>
</svg>
