<svg width="600" height="380" viewBox="0 0 600 380" fill="none" xmlns="http://www.w3.org/2000/svg">
<g clip-path="url(#clip0_2_21)">
<path d="M600 0H0V380H600V0Z" fill="url(#paint0_linear_2_21)"/>
<path d="M32.0881 39.8182V43.3182H30.9943V39.8182H32.0881ZM34.6335 39.8182V43.3182H33.5398V39.8182H34.6335ZM37.8936 39.8182V50H36.7203V39.8182H37.8936ZM43.1449 50.1591C42.4555 50.1591 41.8506 49.995 41.3303 49.6669C40.8132 49.3388 40.4089 48.8797 40.1172 48.2898C39.8288 47.6998 39.6847 47.0104 39.6847 46.2216C39.6847 45.4261 39.8288 44.7318 40.1172 44.1385C40.4089 43.5452 40.8132 43.0845 41.3303 42.7564C41.8506 42.4283 42.4555 42.2642 43.1449 42.2642C43.8343 42.2642 44.4375 42.4283 44.9545 42.7564C45.4749 43.0845 45.8793 43.5452 46.1676 44.1385C46.4593 44.7318 46.6051 45.4261 46.6051 46.2216C46.6051 47.0104 46.4593 47.6998 46.1676 48.2898C45.8793 48.8797 45.4749 49.3388 44.9545 49.6669C44.4375 49.995 43.8343 50.1591 43.1449 50.1591ZM43.1449 49.1051C43.6686 49.1051 44.0994 48.9709 44.4375 48.7024C44.7756 48.4339 45.0258 48.081 45.1882 47.6435C45.3506 47.206 45.4318 46.732 45.4318 46.2216C45.4318 45.7112 45.3506 45.2356 45.1882 44.7947C45.0258 44.3539 44.7756 43.9976 44.4375 43.7259C44.0994 43.4541 43.6686 43.3182 43.1449 43.3182C42.6212 43.3182 42.1903 43.4541 41.8523 43.7259C41.5142 43.9976 41.264 44.3539 41.1016 44.7947C40.9392 45.2356 40.858 45.7112 40.858 46.2216C40.858 46.732 40.9392 47.206 41.1016 47.6435C41.264 48.081 41.5142 48.4339 41.8523 48.7024C42.1903 48.9709 42.6212 49.1051 43.1449 49.1051ZM51.2797 50.1591C50.6433 50.1591 50.0815 49.9983 49.5943 49.6768C49.1071 49.352 48.7259 48.8946 48.4508 48.3047C48.1757 47.7114 48.0382 47.0104 48.0382 46.2017C48.0382 45.3996 48.1757 44.7036 48.4508 44.1136C48.7259 43.5237 49.1087 43.0679 49.5993 42.7464C50.0898 42.425 50.6565 42.2642 51.2995 42.2642C51.7967 42.2642 52.1895 42.3471 52.4778 42.5128C52.7695 42.6752 52.9915 42.8608 53.144 43.0696C53.2998 43.2751 53.4208 43.4441 53.5069 43.5767H53.6064V39.8182H54.7797V50H53.6461V48.8267H53.5069C53.4208 48.9659 53.2981 49.1416 53.139 49.3537C52.9799 49.5625 52.7529 49.7498 52.4579 49.9155C52.1629 50.0779 51.7702 50.1591 51.2797 50.1591ZM51.4387 49.1051C51.9094 49.1051 52.3071 48.9825 52.6319 48.7372C52.9567 48.4886 53.2037 48.1456 53.3727 47.7081C53.5417 47.2673 53.6262 46.7585 53.6262 46.1818C53.6262 45.6117 53.5434 45.1129 53.3777 44.6854C53.2119 44.2545 52.9667 43.9197 52.6419 43.6811C52.3171 43.4392 51.916 43.3182 51.4387 43.3182C50.9416 43.3182 50.5273 43.4458 50.1958 43.701C49.8677 43.9529 49.6208 44.2959 49.4551 44.7301C49.2927 45.161 49.2115 45.6449 49.2115 46.1818C49.2115 46.7254 49.2943 47.2192 49.46 47.6634C49.6291 48.1042 49.8777 48.4555 50.2058 48.7173C50.5372 48.9759 50.9482 49.1051 51.4387 49.1051ZM59.3386 50.179C58.8547 50.179 58.4155 50.0878 58.0211 49.9055C57.6267 49.7199 57.3135 49.4531 57.0815 49.1051C56.8495 48.7538 56.7335 48.3295 56.7335 47.8324C56.7335 47.3949 56.8197 47.0402 56.992 46.7685C57.1644 46.4934 57.3947 46.2779 57.6831 46.1222C57.9714 45.9664 58.2896 45.8504 58.6376 45.7741C58.9889 45.6946 59.3419 45.6316 59.6966 45.5852C60.1606 45.5256 60.5368 45.4808 60.8251 45.451C61.1168 45.4179 61.3289 45.3632 61.4615 45.2869C61.5974 45.2107 61.6653 45.0781 61.6653 44.8892V44.8494C61.6653 44.3589 61.5311 43.9777 61.2626 43.706C60.9975 43.4342 60.5948 43.2983 60.0545 43.2983C59.4944 43.2983 59.0552 43.4209 58.737 43.6662C58.4189 43.9115 58.1951 44.1733 58.0659 44.4517L56.9522 44.054C57.1511 43.59 57.4163 43.2287 57.7477 42.9702C58.0824 42.7083 58.447 42.526 58.8414 42.4233C59.2392 42.3172 59.6303 42.2642 60.0147 42.2642C60.26 42.2642 60.5417 42.294 60.8599 42.3537C61.1814 42.41 61.4913 42.5277 61.7896 42.7067C62.0912 42.8857 62.3414 43.1558 62.5403 43.517C62.7392 43.8783 62.8386 44.3622 62.8386 44.9688V50H61.6653V48.9659H61.6056C61.5261 49.1316 61.3935 49.3089 61.2079 49.4979C61.0223 49.6868 60.7754 49.8475 60.4672 49.9801C60.1589 50.1127 59.7827 50.179 59.3386 50.179ZM59.5176 49.125C59.9816 49.125 60.3727 49.0339 60.6909 48.8516C61.0124 48.6693 61.2543 48.4339 61.4167 48.1456C61.5824 47.8572 61.6653 47.554 61.6653 47.2358V46.1619C61.6156 46.2216 61.5062 46.2763 61.3372 46.326C61.1715 46.3724 60.9792 46.4138 60.7605 46.4503C60.545 46.4834 60.3346 46.5133 60.1291 46.5398C59.9269 46.563 59.7628 46.5829 59.6369 46.5994C59.332 46.6392 59.0469 46.7038 58.7818 46.7933C58.5199 46.8795 58.3078 47.0104 58.1454 47.1861C57.9863 47.3584 57.9068 47.5937 57.9068 47.892C57.9068 48.2997 58.0576 48.608 58.3592 48.8168C58.6641 49.0223 59.0502 49.125 59.5176 49.125ZM70.3892 44.0739L69.3352 44.3722C69.2689 44.1965 69.1712 44.0258 69.0419 43.8601C68.916 43.6911 68.7436 43.5518 68.5249 43.4425C68.3061 43.3331 68.026 43.2784 67.6847 43.2784C67.2173 43.2784 66.8279 43.3861 66.5163 43.6016C66.2081 43.8137 66.054 44.0838 66.054 44.4119C66.054 44.7036 66.16 44.9339 66.3722 45.103C66.5843 45.272 66.9157 45.4129 67.3665 45.5256L68.5 45.804C69.1828 45.9697 69.6915 46.2232 70.0263 46.5646C70.361 46.9027 70.5284 47.3385 70.5284 47.8722C70.5284 48.3097 70.4025 48.7008 70.1506 49.0455C69.902 49.3902 69.554 49.6619 69.1065 49.8608C68.6591 50.0597 68.1387 50.1591 67.5455 50.1591C66.7666 50.1591 66.1219 49.9901 65.6115 49.652C65.1011 49.3139 64.7779 48.8201 64.642 48.1705L65.7557 47.892C65.8617 48.303 66.0623 48.6113 66.3572 48.8168C66.6555 49.0223 67.045 49.125 67.5256 49.125C68.0724 49.125 68.5066 49.009 68.8281 48.777C69.1529 48.5417 69.3153 48.2599 69.3153 47.9318C69.3153 47.6667 69.2225 47.4446 69.0369 47.2656C68.8513 47.0833 68.5663 46.9474 68.1818 46.858L66.9091 46.5597C66.2098 46.3939 65.696 46.1371 65.3679 45.7891C65.0431 45.4377 64.8807 44.9986 64.8807 44.4716C64.8807 44.0407 65.0017 43.6596 65.2436 43.3281C65.4889 42.9967 65.822 42.7365 66.2429 42.5476C66.6671 42.3587 67.1477 42.2642 67.6847 42.2642C68.4403 42.2642 69.0336 42.4299 69.4645 42.7614C69.8987 43.0928 70.2069 43.5303 70.3892 44.0739ZM73.4679 45.4062V50H72.2946V39.8182H73.4679V43.5568H73.5673C73.7463 43.1624 74.0147 42.8492 74.3727 42.6172C74.734 42.3819 75.2145 42.2642 75.8145 42.2642C76.3348 42.2642 76.7905 42.3686 77.1816 42.5774C77.5727 42.7829 77.876 43.0994 78.0914 43.527C78.3102 43.9512 78.4196 44.4915 78.4196 45.1477V50H77.2463V45.2273C77.2463 44.6207 77.0888 44.1518 76.774 43.8203C76.4624 43.4856 76.0299 43.3182 75.4764 43.3182C75.0919 43.3182 74.7472 43.3994 74.4423 43.5618C74.1407 43.7242 73.902 43.9612 73.7264 44.2727C73.554 44.5843 73.4679 44.9621 73.4679 45.4062ZM81.5803 39.8182V43.3182H80.4865V39.8182H81.5803ZM84.1257 39.8182V43.3182H83.032V39.8182H84.1257ZM95.0197 39.8182V43.3182H93.926V39.8182H95.0197ZM97.5652 39.8182V43.3182H96.4714V39.8182H97.5652ZM101.68 40.6932H102.038V41.1903H101.68V40.6932ZM99.1349 44.4318L101.183 40.1364H102.536L104.584 44.4318H103.411L101.8 40.9915H101.919L100.328 44.4318H99.1349ZM105.313 47.9119V46.8977L109.788 39.8182H110.524V41.3892H110.026L106.646 46.7386V46.8182H112.671V47.9119H105.313ZM110.106 50V47.6037V47.1314V39.8182H111.279V50H110.106ZM114.931 50.0795C114.686 50.0795 114.475 49.9917 114.3 49.8161C114.124 49.6404 114.036 49.4299 114.036 49.1847C114.036 48.9394 114.124 48.7289 114.3 48.5533C114.475 48.3776 114.686 48.2898 114.931 48.2898C115.176 48.2898 115.387 48.3776 115.562 48.5533C115.738 48.7289 115.826 48.9394 115.826 49.1847C115.826 49.3471 115.784 49.4962 115.702 49.6321C115.622 49.768 115.514 49.8774 115.378 49.9602C115.246 50.0398 115.097 50.0795 114.931 50.0795ZM120.274 39.8182V50H119.041V41.1108H118.982L116.496 42.7614V41.5085L119.041 39.8182H120.274ZM123.521 50L128.075 40.9915V40.9119H122.825V39.8182H129.347V40.9716L124.813 50H123.521ZM130.325 50.0795C130.08 50.0795 129.87 49.9917 129.694 49.8161C129.518 49.6404 129.431 49.4299 129.431 49.1847C129.431 48.9394 129.518 48.7289 129.694 48.5533C129.87 48.3776 130.08 48.2898 130.325 48.2898C130.571 48.2898 130.781 48.3776 130.957 48.5533C131.133 48.7289 131.22 48.9394 131.22 49.1847C131.22 49.3471 131.179 49.4962 131.096 49.6321C131.017 49.768 130.909 49.8774 130.773 49.9602C130.64 50.0398 130.491 50.0795 130.325 50.0795ZM133.306 50V49.1051L136.667 45.4261C137.061 44.9953 137.386 44.6207 137.641 44.3026C137.896 43.9811 138.085 43.6795 138.208 43.3977C138.334 43.1127 138.397 42.8144 138.397 42.5028C138.397 42.1449 138.311 41.835 138.138 41.5732C137.969 41.3113 137.737 41.1091 137.442 40.9666C137.147 40.8241 136.816 40.7528 136.448 40.7528C136.057 40.7528 135.715 40.834 135.424 40.9964C135.135 41.1555 134.912 41.3793 134.753 41.6676C134.597 41.956 134.519 42.294 134.519 42.6818H133.346C133.346 42.0852 133.483 41.5616 133.758 41.1108C134.033 40.66 134.408 40.3087 134.882 40.0568C135.359 39.8049 135.894 39.679 136.488 39.679C137.084 39.679 137.613 39.8049 138.074 40.0568C138.534 40.3087 138.896 40.6484 139.157 41.076C139.419 41.5036 139.55 41.9792 139.55 42.5028C139.55 42.8774 139.482 43.2436 139.346 43.6016C139.214 43.9562 138.982 44.3523 138.65 44.7898C138.322 45.224 137.867 45.7543 137.283 46.3807L134.996 48.8267V48.9062H139.729V50H133.306ZM145.104 50.1392C144.354 50.1392 143.716 49.9354 143.189 49.5277C142.662 49.1167 142.26 48.5218 141.981 47.7429C141.703 46.9607 141.564 46.0161 141.564 44.9091C141.564 43.8087 141.703 42.8691 141.981 42.0902C142.263 41.308 142.667 40.7114 143.194 40.3004C143.725 39.8861 144.361 39.679 145.104 39.679C145.846 39.679 146.481 39.8861 147.008 40.3004C147.538 40.7114 147.942 41.308 148.221 42.0902C148.502 42.8691 148.643 43.8087 148.643 44.9091C148.643 46.0161 148.504 46.9607 148.226 47.7429C147.947 48.5218 147.545 49.1167 147.018 49.5277C146.491 49.9354 145.853 50.1392 145.104 50.1392ZM145.104 49.0455C145.846 49.0455 146.423 48.6875 146.834 47.9716C147.245 47.2557 147.45 46.2348 147.45 44.9091C147.45 44.0275 147.356 43.2768 147.167 42.657C146.981 42.0372 146.713 41.5649 146.361 41.2401C146.013 40.9152 145.594 40.7528 145.104 40.7528C144.368 40.7528 143.793 41.1158 143.378 41.8416C142.964 42.5642 142.757 43.5866 142.757 44.9091C142.757 45.7907 142.85 46.5398 143.035 47.1562C143.221 47.7727 143.488 48.2417 143.836 48.5632C144.187 48.8847 144.61 49.0455 145.104 49.0455ZM163.707 39.8182V43.3182H162.613V39.8182H163.707ZM166.253 39.8182V43.3182H165.159V39.8182H166.253Z" fill="#CE9178"/>
<path d="M87.0676 50.0795C86.8224 50.0795 86.6119 49.9917 86.4363 49.8161C86.2606 49.6404 86.1728 49.4299 86.1728 49.1847C86.1728 48.9394 86.2606 48.7289 86.4363 48.5533C86.6119 48.3776 86.8224 48.2898 87.0676 48.2898C87.3129 48.2898 87.5234 48.3776 87.699 48.5533C87.8747 48.7289 87.9625 48.9394 87.9625 49.1847C87.9625 49.3471 87.9211 49.4962 87.8382 49.6321C87.7587 49.768 87.651 49.8774 87.5151 49.9602C87.3825 50.0398 87.2334 50.0795 87.0676 50.0795ZM87.0676 44.4119C86.8224 44.4119 86.6119 44.3241 86.4363 44.1484C86.2606 43.9728 86.1728 43.7623 86.1728 43.517C86.1728 43.2718 86.2606 43.0613 86.4363 42.8857C86.6119 42.71 86.8224 42.6222 87.0676 42.6222C87.3129 42.6222 87.5234 42.71 87.699 42.8857C87.8747 43.0613 87.9625 43.2718 87.9625 43.517C87.9625 43.6795 87.9211 43.8286 87.8382 43.9645C87.7587 44.1004 87.651 44.2098 87.5151 44.2926C87.3825 44.3722 87.2334 44.4119 87.0676 44.4119ZM168.941 48.608L168.862 49.1449C168.805 49.5227 168.719 49.9271 168.603 50.358C168.49 50.7888 168.373 51.1948 168.25 51.576C168.127 51.9571 168.026 52.2604 167.947 52.4858H167.052C167.095 52.2737 167.151 51.9936 167.221 51.6456C167.29 51.2976 167.36 50.9081 167.43 50.4773C167.503 50.0497 167.562 49.6122 167.609 49.1648L167.668 48.608H168.941Z" fill="#D4D4D4"/>
<path d="M161.41 43.154L157.518 47.046L153.626 43.154H161.41Z" fill="#FFD700"/>
<path d="M346.527 49.3636L345.761 48.608L348.913 45.456H340.75V44.3622H348.913L345.761 41.2202L346.527 40.4545L350.982 44.9091L346.527 49.3636ZM357.11 47.9119V46.8977L361.585 39.8182H362.32V41.3892H361.823L358.443 46.7386V46.8182H364.468V47.9119H357.11ZM361.903 50V47.6037V47.1314V39.8182H363.076V50H361.903ZM366.728 50.0795C366.483 50.0795 366.272 49.9917 366.096 49.8161C365.921 49.6404 365.833 49.4299 365.833 49.1847C365.833 48.9394 365.921 48.7289 366.096 48.5533C366.272 48.3776 366.483 48.2898 366.728 48.2898C366.973 48.2898 367.184 48.3776 367.359 48.5533C367.535 48.7289 367.623 48.9394 367.623 49.1847C367.623 49.3471 367.581 49.4962 367.498 49.6321C367.419 49.768 367.311 49.8774 367.175 49.9602C367.043 50.0398 366.894 50.0795 366.728 50.0795ZM372.071 39.8182V50H370.838V41.1108H370.778L368.293 42.7614V41.5085L370.838 39.8182H372.071ZM375.317 50L379.871 40.9915V40.9119H374.621V39.8182H381.144V40.9716L376.61 50H375.317ZM382.122 50.0795C381.877 50.0795 381.667 49.9917 381.491 49.8161C381.315 49.6404 381.227 49.4299 381.227 49.1847C381.227 48.9394 381.315 48.7289 381.491 48.5533C381.667 48.3776 381.877 48.2898 382.122 48.2898C382.368 48.2898 382.578 48.3776 382.754 48.5533C382.929 48.7289 383.017 48.9394 383.017 49.1847C383.017 49.3471 382.976 49.4962 382.893 49.6321C382.813 49.768 382.706 49.8774 382.57 49.9602C382.437 50.0398 382.288 50.0795 382.122 50.0795ZM385.103 50V49.1051L388.464 45.4261C388.858 44.9953 389.183 44.6207 389.438 44.3026C389.693 43.9811 389.882 43.6795 390.005 43.3977C390.131 43.1127 390.194 42.8144 390.194 42.5028C390.194 42.1449 390.108 41.835 389.935 41.5732C389.766 41.3113 389.534 41.1091 389.239 40.9666C388.944 40.8241 388.613 40.7528 388.245 40.7528C387.854 40.7528 387.512 40.834 387.221 40.9964C386.932 41.1555 386.709 41.3793 386.55 41.6676C386.394 41.956 386.316 42.294 386.316 42.6818H385.143C385.143 42.0852 385.28 41.5616 385.555 41.1108C385.83 40.66 386.205 40.3087 386.679 40.0568C387.156 39.8049 387.691 39.679 388.285 39.679C388.881 39.679 389.41 39.8049 389.871 40.0568C390.331 40.3087 390.693 40.6484 390.954 41.076C391.216 41.5036 391.347 41.9792 391.347 42.5028C391.347 42.8774 391.279 43.2436 391.143 43.6016C391.011 43.9562 390.779 44.3523 390.447 44.7898C390.119 45.224 389.663 45.7543 389.08 46.3807L386.793 48.8267V48.9062H391.526V50H385.103ZM397.159 39.8182V50H395.926V41.1108H395.866L393.381 42.7614V41.5085L395.926 39.8182H397.159Z" fill="#4EC9B0"/>
<path d="M302 60H134C130.686 60 128 62.6863 128 66V304C128 307.314 130.686 310 134 310H302C305.314 310 308 307.314 308 304V66C308 62.6863 305.314 60 302 60Z" fill="#252526" stroke="#454545"/>
<path d="M306 62H130V90H306V62Z" fill="#094771"/>
<path d="M143.757 80.0611V79.1193L147.912 72.5455H148.595V74.0043H148.134L144.994 78.9716V79.0455H150.589V80.0611H143.757ZM148.207 82V79.7749V79.3363V72.5455H149.297V82H148.207ZM152.688 82.0739C152.46 82.0739 152.265 81.9923 152.101 81.8292C151.938 81.6661 151.857 81.4706 151.857 81.2429C151.857 81.0152 151.938 80.8197 152.101 80.6566C152.265 80.4935 152.46 80.4119 152.688 80.4119C152.915 80.4119 153.111 80.4935 153.274 80.6566C153.437 80.8197 153.519 81.0152 153.519 81.2429C153.519 81.3937 153.48 81.5322 153.403 81.6584C153.329 81.7846 153.229 81.8861 153.103 81.9631C152.98 82.0369 152.842 82.0739 152.688 82.0739ZM157.649 72.5455V82H156.504V73.7457H156.449L154.141 75.2784V74.1151L156.504 72.5455H157.649ZM160.664 82L164.892 73.6349V73.5611H160.017V72.5455H166.074V73.6165L161.864 82H160.664ZM166.983 82.0739C166.755 82.0739 166.559 81.9923 166.396 81.8292C166.233 81.6661 166.152 81.4706 166.152 81.2429C166.152 81.0152 166.233 80.8197 166.396 80.6566C166.559 80.4935 166.755 80.4119 166.983 80.4119C167.21 80.4119 167.406 80.4935 167.569 80.6566C167.732 80.8197 167.814 81.0152 167.814 81.2429C167.814 81.3937 167.775 81.5322 167.698 81.6584C167.624 81.7846 167.524 81.8861 167.398 81.9631C167.275 82.0369 167.136 82.0739 166.983 82.0739ZM169.75 82V81.169L172.871 77.7528C173.237 77.3527 173.539 77.005 173.776 76.7095C174.013 76.411 174.188 76.1309 174.302 75.8693C174.419 75.6046 174.477 75.3277 174.477 75.0384C174.477 74.706 174.397 74.4182 174.237 74.1751C174.08 73.9319 173.865 73.7442 173.591 73.6119C173.317 73.4795 173.009 73.4134 172.668 73.4134C172.305 73.4134 171.988 73.4888 171.717 73.6396C171.449 73.7873 171.241 73.995 171.094 74.2628C170.949 74.5305 170.877 74.8445 170.877 75.2045H169.787C169.787 74.6506 169.915 74.1643 170.17 73.7457C170.426 73.3272 170.773 73.0009 171.214 72.767C171.657 72.5331 172.154 72.4162 172.705 72.4162C173.259 72.4162 173.75 72.5331 174.177 72.767C174.605 73.0009 174.941 73.3164 175.184 73.7134C175.427 74.1104 175.548 74.5521 175.548 75.0384C175.548 75.3861 175.485 75.7262 175.359 76.0586C175.236 76.3879 175.021 76.7557 174.713 77.1619C174.408 77.5651 173.985 78.0575 173.443 78.6392L171.32 80.9105V80.9844H175.715V82H169.75ZM180.945 72.5455V82H179.8V73.7457H179.745L177.437 75.2784V74.1151L179.8 72.5455H180.945Z" fill="white"/>
<path d="M238 82.77H249V71.77H238V82.77ZM253.063 82V74H254.031V81.1406H257.75V82H253.063ZM260.891 82.1406C260.51 82.1406 260.165 82.069 259.855 81.9258C259.546 81.7799 259.299 81.5703 259.117 81.2969C258.935 81.0208 258.844 80.6875 258.844 80.2969C258.844 79.9531 258.911 79.6745 259.047 79.4609C259.182 79.2448 259.363 79.0755 259.59 78.9531C259.816 78.8307 260.066 78.7396 260.34 78.6797C260.616 78.6172 260.893 78.5677 261.172 78.5313C261.536 78.4844 261.832 78.4492 262.059 78.4258C262.288 78.3997 262.454 78.3568 262.559 78.2969C262.665 78.237 262.719 78.1328 262.719 77.9844V77.9531C262.719 77.5677 262.613 77.2682 262.402 77.0547C262.194 76.8411 261.878 76.7344 261.453 76.7344C261.013 76.7344 260.668 76.8307 260.418 77.0234C260.168 77.2161 259.992 77.4219 259.891 77.6406L259.016 77.3281C259.172 76.9635 259.38 76.6797 259.641 76.4766C259.904 76.2708 260.19 76.1276 260.5 76.0469C260.813 75.9635 261.12 75.9219 261.422 75.9219C261.615 75.9219 261.836 75.9453 262.086 75.9922C262.339 76.0365 262.582 76.1289 262.816 76.2695C263.053 76.4102 263.25 76.6224 263.406 76.9062C263.563 77.1901 263.641 77.5703 263.641 78.0469V82H262.719V81.1875H262.672C262.609 81.3177 262.505 81.457 262.359 81.6055C262.214 81.7539 262.02 81.8802 261.777 81.9844C261.535 82.0885 261.24 82.1406 260.891 82.1406ZM261.031 81.3125C261.396 81.3125 261.703 81.2409 261.953 81.0977C262.206 80.9544 262.396 80.7695 262.523 80.543C262.654 80.3164 262.719 80.0781 262.719 79.8281V78.9844C262.68 79.0312 262.594 79.0742 262.461 79.1133C262.331 79.1497 262.18 79.1823 262.008 79.2109C261.839 79.237 261.673 79.2604 261.512 79.2812C261.353 79.2995 261.224 79.3151 261.125 79.3281C260.885 79.3594 260.661 79.4102 260.453 79.4805C260.247 79.5482 260.081 79.651 259.953 79.7891C259.828 79.9245 259.766 80.1094 259.766 80.3437C259.766 80.6641 259.884 80.9062 260.121 81.0703C260.361 81.2318 260.664 81.3125 261.031 81.3125ZM267.933 76V76.7812H264.823V76H267.933ZM265.729 74.5625H266.651V80.2812C266.651 80.5417 266.689 80.737 266.765 80.8672C266.843 80.9948 266.942 81.0807 267.062 81.125C267.184 81.1667 267.313 81.1875 267.448 81.1875C267.55 81.1875 267.633 81.1823 267.698 81.1719C267.763 81.1589 267.815 81.1484 267.854 81.1406L268.042 81.9687C267.979 81.9922 267.892 82.0156 267.78 82.0391C267.668 82.0651 267.526 82.0781 267.354 82.0781C267.094 82.0781 266.839 82.0221 266.589 81.9102C266.341 81.7982 266.136 81.6276 265.972 81.3984C265.81 81.1693 265.729 80.8802 265.729 80.5312V74.5625ZM271.771 82.125C271.192 82.125 270.694 81.9974 270.274 81.7422C269.858 81.4844 269.536 81.125 269.31 80.6641C269.086 80.2005 268.974 79.6615 268.974 79.0469C268.974 78.4323 269.086 77.8906 269.31 77.4219C269.536 76.9505 269.851 76.5833 270.255 76.3203C270.661 76.0547 271.135 75.9219 271.677 75.9219C271.989 75.9219 272.298 75.974 272.603 76.0781C272.907 76.1823 273.185 76.3516 273.435 76.5859C273.685 76.8177 273.884 77.125 274.032 77.5078C274.181 77.8906 274.255 78.362 274.255 78.9219V79.3125H269.63V78.5156H273.317C273.317 78.1771 273.25 77.875 273.114 77.6094C272.981 77.3437 272.791 77.1341 272.544 76.9805C272.299 76.8268 272.01 76.75 271.677 76.75C271.31 76.75 270.992 76.8411 270.724 77.0234C270.458 77.2031 270.254 77.4375 270.11 77.7266C269.967 78.0156 269.896 78.3255 269.896 78.6562V79.1875C269.896 79.6406 269.974 80.0247 270.13 80.3398C270.289 80.6523 270.509 80.8906 270.79 81.0547C271.071 81.2161 271.398 81.2969 271.771 81.2969C272.013 81.2969 272.231 81.263 272.427 81.1953C272.625 81.125 272.795 81.0208 272.938 80.8828C273.082 80.7422 273.192 80.5677 273.271 80.3594L274.161 80.6094C274.067 80.9115 273.91 81.1771 273.688 81.4062C273.467 81.6328 273.194 81.8099 272.868 81.9375C272.543 82.0625 272.177 82.125 271.771 82.125ZM279.907 77.3437L279.079 77.5781C279.027 77.4401 278.95 77.306 278.849 77.1758C278.75 77.043 278.614 76.9336 278.442 76.8477C278.271 76.7617 278.05 76.7187 277.782 76.7187C277.415 76.7187 277.109 76.8034 276.864 76.9727C276.622 77.1393 276.501 77.3516 276.501 77.6094C276.501 77.8385 276.584 78.0195 276.751 78.1523C276.918 78.2852 277.178 78.3958 277.532 78.4844L278.423 78.7031C278.959 78.8333 279.359 79.0326 279.622 79.3008C279.885 79.5664 280.017 79.9089 280.017 80.3281C280.017 80.6719 279.918 80.9792 279.72 81.25C279.524 81.5208 279.251 81.7344 278.899 81.8906C278.548 82.0469 278.139 82.125 277.673 82.125C277.061 82.125 276.554 81.9922 276.153 81.7266C275.752 81.4609 275.498 81.0729 275.392 80.5625L276.267 80.3437C276.35 80.6667 276.507 80.9089 276.739 81.0703C276.974 81.2318 277.28 81.3125 277.657 81.3125C278.087 81.3125 278.428 81.2214 278.681 81.0391C278.936 80.8542 279.063 80.6328 279.063 80.375C279.063 80.1667 278.991 79.9922 278.845 79.8516C278.699 79.7083 278.475 79.6016 278.173 79.5312L277.173 79.2969C276.623 79.1667 276.22 78.9648 275.962 78.6914C275.707 78.4154 275.579 78.0703 275.579 77.6562C275.579 77.3177 275.674 77.0182 275.864 76.7578C276.057 76.4974 276.319 76.293 276.649 76.1445C276.983 75.9961 277.36 75.9219 277.782 75.9219C278.376 75.9219 278.842 76.0521 279.181 76.3125C279.522 76.5729 279.764 76.9167 279.907 77.3437ZM284.014 76V76.7812H280.904V76H284.014ZM281.811 74.5625H282.732V80.2812C282.732 80.5417 282.77 80.737 282.846 80.8672C282.924 80.9948 283.023 81.0807 283.143 81.125C283.265 81.1667 283.394 81.1875 283.529 81.1875C283.631 81.1875 283.714 81.1823 283.779 81.1719C283.844 81.1589 283.896 81.1484 283.936 81.1406L284.123 81.9687C284.061 81.9922 283.973 82.0156 283.861 82.0391C283.749 82.0651 283.607 82.0781 283.436 82.0781C283.175 82.0781 282.92 82.0221 282.67 81.9102C282.423 81.7982 282.217 81.6276 282.053 81.3984C281.891 81.1693 281.811 80.8802 281.811 80.5312V74.5625Z" fill="#4EC9B0"/>
<path d="M143.757 108.061V107.119L147.912 100.545H148.595V102.004H148.134L144.994 106.972V107.045H150.589V108.061H143.757ZM148.207 110V107.775V107.336V100.545H149.297V110H148.207ZM152.688 110.074C152.46 110.074 152.265 109.992 152.101 109.829C151.938 109.666 151.857 109.471 151.857 109.243C151.857 109.015 151.938 108.82 152.101 108.657C152.265 108.493 152.46 108.412 152.688 108.412C152.915 108.412 153.111 108.493 153.274 108.657C153.437 108.82 153.519 109.015 153.519 109.243C153.519 109.394 153.48 109.532 153.403 109.658C153.329 109.785 153.229 109.886 153.103 109.963C152.98 110.037 152.842 110.074 152.688 110.074ZM157.649 100.545V110H156.504V101.746H156.449L154.141 103.278V102.115L156.504 100.545H157.649ZM160.664 110L164.892 101.635V101.561H160.017V100.545H166.074V101.616L161.864 110H160.664ZM166.983 110.074C166.755 110.074 166.559 109.992 166.396 109.829C166.233 109.666 166.152 109.471 166.152 109.243C166.152 109.015 166.233 108.82 166.396 108.657C166.559 108.493 166.755 108.412 166.983 108.412C167.21 108.412 167.406 108.493 167.569 108.657C167.732 108.82 167.814 109.015 167.814 109.243C167.814 109.394 167.775 109.532 167.698 109.658C167.624 109.785 167.524 109.886 167.398 109.963C167.275 110.037 167.136 110.074 166.983 110.074ZM169.75 110V109.169L172.871 105.753C173.237 105.353 173.539 105.005 173.776 104.71C174.013 104.411 174.188 104.131 174.302 103.869C174.419 103.605 174.477 103.328 174.477 103.038C174.477 102.706 174.397 102.418 174.237 102.175C174.08 101.932 173.865 101.744 173.591 101.612C173.317 101.48 173.009 101.413 172.668 101.413C172.305 101.413 171.988 101.489 171.717 101.64C171.449 101.787 171.241 101.995 171.094 102.263C170.949 102.531 170.877 102.844 170.877 103.205H169.787C169.787 102.651 169.915 102.164 170.17 101.746C170.426 101.327 170.773 101.001 171.214 100.767C171.657 100.533 172.154 100.416 172.705 100.416C173.259 100.416 173.75 100.533 174.177 100.767C174.605 101.001 174.941 101.316 175.184 101.713C175.427 102.11 175.548 102.552 175.548 103.038C175.548 103.386 175.485 103.726 175.359 104.059C175.236 104.388 175.021 104.756 174.713 105.162C174.408 105.565 173.985 106.058 173.443 106.639L171.32 108.911V108.984H175.715V110H169.75ZM180.705 110.129C180.01 110.129 179.417 109.94 178.928 109.561C178.438 109.18 178.064 108.627 177.806 107.904C177.547 107.178 177.418 106.301 177.418 105.273C177.418 104.251 177.547 103.378 177.806 102.655C178.068 101.929 178.443 101.375 178.932 100.993C179.425 100.609 180.016 100.416 180.705 100.416C181.394 100.416 181.984 100.609 182.473 100.993C182.966 101.375 183.341 101.929 183.6 102.655C183.861 103.378 183.992 104.251 183.992 105.273C183.992 106.301 183.863 107.178 183.604 107.904C183.346 108.627 182.972 109.18 182.482 109.561C181.993 109.94 181.401 110.129 180.705 110.129ZM180.705 109.114C181.394 109.114 181.93 108.781 182.312 108.116C182.693 107.452 182.884 106.504 182.884 105.273C182.884 104.454 182.796 103.757 182.621 103.181C182.449 102.606 182.199 102.167 181.873 101.866C181.55 101.564 181.161 101.413 180.705 101.413C180.022 101.413 179.488 101.75 179.103 102.424C178.718 103.095 178.526 104.045 178.526 105.273C178.526 106.091 178.612 106.787 178.785 107.359C178.957 107.932 179.205 108.367 179.528 108.666C179.854 108.964 180.247 109.114 180.705 109.114Z" fill="#D4D4D4"/>
<path d="M238 110.77H249V99.77H238V110.77ZM259.5 104.5H258.531C258.474 104.221 258.374 103.977 258.23 103.766C258.09 103.555 257.918 103.378 257.715 103.234C257.514 103.089 257.292 102.979 257.047 102.906C256.802 102.833 256.547 102.797 256.281 102.797C255.797 102.797 255.358 102.919 254.965 103.164C254.574 103.409 254.263 103.77 254.031 104.246C253.802 104.723 253.688 105.307 253.688 106C253.688 106.693 253.802 107.277 254.031 107.754C254.263 108.23 254.574 108.591 254.965 108.836C255.358 109.081 255.797 109.203 256.281 109.203C256.547 109.203 256.802 109.167 257.047 109.094C257.292 109.021 257.514 108.913 257.715 108.77C257.918 108.624 258.09 108.445 258.23 108.234C258.374 108.021 258.474 107.776 258.531 107.5H259.5C259.427 107.909 259.294 108.275 259.102 108.598C258.909 108.921 258.669 109.195 258.383 109.422C258.096 109.646 257.775 109.816 257.418 109.934C257.064 110.051 256.685 110.109 256.281 110.109C255.599 110.109 254.992 109.943 254.461 109.609C253.93 109.276 253.512 108.802 253.207 108.187C252.902 107.573 252.75 106.844 252.75 106C252.75 105.156 252.902 104.427 253.207 103.812C253.512 103.198 253.93 102.724 254.461 102.391C254.992 102.057 255.599 101.891 256.281 101.891C256.685 101.891 257.064 101.949 257.418 102.066C257.775 102.184 258.096 102.355 258.383 102.582C258.669 102.806 258.909 103.079 259.102 103.402C259.294 103.723 259.427 104.089 259.5 104.5ZM264.722 107.547V104H265.644V110H264.722V108.984H264.659C264.519 109.289 264.3 109.548 264.003 109.762C263.706 109.973 263.331 110.078 262.878 110.078C262.503 110.078 262.17 109.996 261.878 109.832C261.586 109.665 261.357 109.415 261.19 109.082C261.024 108.746 260.94 108.323 260.94 107.812V104H261.862V107.75C261.862 108.187 261.985 108.536 262.229 108.797C262.477 109.057 262.792 109.187 263.175 109.187C263.404 109.187 263.637 109.129 263.874 109.012C264.114 108.895 264.314 108.715 264.476 108.473C264.64 108.23 264.722 107.922 264.722 107.547ZM267.332 110V104H268.223V104.906H268.285C268.395 104.609 268.592 104.368 268.879 104.184C269.165 103.999 269.488 103.906 269.848 103.906C269.915 103.906 270 103.908 270.102 103.91C270.203 103.913 270.28 103.917 270.332 103.922V104.859C270.301 104.852 270.229 104.84 270.117 104.824C270.008 104.806 269.892 104.797 269.77 104.797C269.478 104.797 269.217 104.858 268.988 104.98C268.762 105.1 268.582 105.267 268.449 105.48C268.319 105.691 268.254 105.932 268.254 106.203V110H267.332ZM271.425 110V104H272.315V104.906H272.378C272.487 104.609 272.685 104.368 272.972 104.184C273.258 103.999 273.581 103.906 273.94 103.906C274.008 103.906 274.093 103.908 274.194 103.91C274.296 103.913 274.373 103.917 274.425 103.922V104.859C274.394 104.852 274.322 104.84 274.21 104.824C274.101 104.806 273.985 104.797 273.862 104.797C273.571 104.797 273.31 104.858 273.081 104.98C272.854 105.1 272.675 105.267 272.542 105.48C272.412 105.691 272.347 105.932 272.347 106.203V110H271.425ZM277.851 110.125C277.272 110.125 276.774 109.997 276.354 109.742C275.938 109.484 275.616 109.125 275.39 108.664C275.166 108.201 275.054 107.661 275.054 107.047C275.054 106.432 275.166 105.891 275.39 105.422C275.616 104.951 275.931 104.583 276.335 104.32C276.741 104.055 277.215 103.922 277.757 103.922C278.069 103.922 278.378 103.974 278.683 104.078C278.987 104.182 279.265 104.352 279.515 104.586C279.765 104.818 279.964 105.125 280.112 105.508C280.261 105.891 280.335 106.362 280.335 106.922V107.312H275.71V106.516H279.397C279.397 106.177 279.33 105.875 279.194 105.609C279.062 105.344 278.871 105.134 278.624 104.98C278.379 104.827 278.09 104.75 277.757 104.75C277.39 104.75 277.072 104.841 276.804 105.023C276.538 105.203 276.334 105.437 276.19 105.727C276.047 106.016 275.976 106.326 275.976 106.656V107.188C275.976 107.641 276.054 108.025 276.21 108.34C276.369 108.652 276.589 108.891 276.87 109.055C277.151 109.216 277.478 109.297 277.851 109.297C278.093 109.297 278.312 109.263 278.507 109.195C278.705 109.125 278.875 109.021 279.019 108.883C279.162 108.742 279.272 108.568 279.351 108.359L280.241 108.609C280.147 108.911 279.99 109.177 279.769 109.406C279.547 109.633 279.274 109.81 278.948 109.937C278.623 110.063 278.257 110.125 277.851 110.125ZM282.659 106.391V110H281.737V104H282.628V104.937H282.706C282.847 104.633 283.06 104.388 283.347 104.203C283.633 104.016 284.003 103.922 284.456 103.922C284.862 103.922 285.218 104.005 285.522 104.172C285.827 104.336 286.064 104.586 286.233 104.922C286.403 105.255 286.487 105.677 286.487 106.188V110H285.565V106.25C285.565 105.779 285.443 105.411 285.198 105.148C284.953 104.883 284.618 104.75 284.19 104.75C283.896 104.75 283.633 104.814 283.401 104.941C283.172 105.069 282.991 105.255 282.858 105.5C282.726 105.745 282.659 106.042 282.659 106.391ZM290.781 104V104.781H287.672V104H290.781ZM288.578 102.562H289.5V108.281C289.5 108.542 289.538 108.737 289.613 108.867C289.691 108.995 289.79 109.081 289.91 109.125C290.033 109.167 290.161 109.187 290.297 109.187C290.398 109.187 290.482 109.182 290.547 109.172C290.612 109.159 290.664 109.148 290.703 109.141L290.891 109.969C290.828 109.992 290.741 110.016 290.629 110.039C290.517 110.065 290.375 110.078 290.203 110.078C289.943 110.078 289.688 110.022 289.438 109.91C289.19 109.798 288.984 109.628 288.82 109.398C288.659 109.169 288.578 108.88 288.578 108.531V102.562Z" fill="#858585"/>
<path d="M143.757 136.061V135.119L147.912 128.545H148.595V130.004H148.134L144.994 134.972V135.045H150.589V136.061H143.757ZM148.207 138V135.775V135.336V128.545H149.297V138H148.207ZM152.688 138.074C152.46 138.074 152.265 137.992 152.101 137.829C151.938 137.666 151.857 137.471 151.857 137.243C151.857 137.015 151.938 136.82 152.101 136.657C152.265 136.493 152.46 136.412 152.688 136.412C152.915 136.412 153.111 136.493 153.274 136.657C153.437 136.82 153.519 137.015 153.519 137.243C153.519 137.394 153.48 137.532 153.403 137.658C153.329 137.785 153.229 137.886 153.103 137.963C152.98 138.037 152.842 138.074 152.688 138.074ZM157.649 128.545V138H156.504V129.746H156.449L154.141 131.278V130.115L156.504 128.545H157.649ZM160.664 138L164.892 129.635V129.561H160.017V128.545H166.074V129.616L161.864 138H160.664ZM166.983 138.074C166.755 138.074 166.559 137.992 166.396 137.829C166.233 137.666 166.152 137.471 166.152 137.243C166.152 137.015 166.233 136.82 166.396 136.657C166.559 136.493 166.755 136.412 166.983 136.412C167.21 136.412 167.406 136.493 167.569 136.657C167.732 136.82 167.814 137.015 167.814 137.243C167.814 137.394 167.775 137.532 167.698 137.658C167.624 137.785 167.524 137.886 167.398 137.963C167.275 138.037 167.136 138.074 166.983 138.074ZM171.944 128.545V138H170.799V129.746H170.744L168.436 131.278V130.115L170.799 128.545H171.944ZM177.673 128.416C178.061 128.419 178.449 128.493 178.837 128.638C179.224 128.782 179.578 129.022 179.898 129.358C180.218 129.69 180.475 130.144 180.669 130.72C180.863 131.295 180.96 132.017 180.96 132.885C180.96 133.725 180.88 134.471 180.72 135.124C180.563 135.773 180.335 136.321 180.037 136.767C179.741 137.214 179.381 137.552 178.957 137.783C178.535 138.014 178.058 138.129 177.525 138.129C176.996 138.129 176.524 138.025 176.108 137.815C175.696 137.603 175.357 137.309 175.093 136.934C174.831 136.555 174.663 136.116 174.589 135.618H175.716C175.817 136.052 176.019 136.41 176.321 136.694C176.625 136.974 177.027 137.114 177.525 137.114C178.255 137.114 178.83 136.795 179.252 136.158C179.677 135.521 179.889 134.621 179.889 133.457H179.815C179.643 133.716 179.438 133.939 179.201 134.127C178.964 134.315 178.701 134.459 178.412 134.561C178.123 134.662 177.815 134.713 177.489 134.713C176.947 134.713 176.45 134.579 175.997 134.311C175.548 134.041 175.188 133.67 174.917 133.199C174.649 132.725 174.516 132.183 174.516 131.574C174.516 130.995 174.645 130.466 174.903 129.986C175.165 129.503 175.531 129.118 176.002 128.832C176.476 128.545 177.033 128.407 177.673 128.416ZM177.673 129.432C177.285 129.432 176.936 129.529 176.625 129.723C176.318 129.913 176.073 130.172 175.891 130.498C175.713 130.821 175.623 131.18 175.623 131.574C175.623 131.968 175.71 132.326 175.882 132.65C176.057 132.97 176.296 133.225 176.598 133.416C176.902 133.604 177.248 133.697 177.636 133.697C177.929 133.697 178.201 133.641 178.453 133.527C178.706 133.41 178.926 133.251 179.114 133.051C179.304 132.848 179.454 132.619 179.561 132.363C179.669 132.105 179.723 131.835 179.723 131.555C179.723 131.186 179.634 130.84 179.455 130.517C179.28 130.194 179.037 129.932 178.726 129.732C178.418 129.532 178.067 129.432 177.673 129.432Z" fill="#D4D4D4"/>
<path d="M143.757 164.061V163.119L147.912 156.545H148.595V158.004H148.134L144.994 162.972V163.045H150.589V164.061H143.757ZM148.207 166V163.775V163.336V156.545H149.297V166H148.207ZM152.688 166.074C152.46 166.074 152.265 165.992 152.101 165.829C151.938 165.666 151.857 165.471 151.857 165.243C151.857 165.015 151.938 164.82 152.101 164.657C152.265 164.493 152.46 164.412 152.688 164.412C152.915 164.412 153.111 164.493 153.274 164.657C153.437 164.82 153.519 165.015 153.519 165.243C153.519 165.394 153.48 165.532 153.403 165.658C153.329 165.785 153.229 165.886 153.103 165.963C152.98 166.037 152.842 166.074 152.688 166.074ZM157.649 156.545V166H156.504V157.746H156.449L154.141 159.278V158.115L156.504 156.545H157.649ZM160.664 166L164.892 157.635V157.561H160.017V156.545H166.074V157.616L161.864 166H160.664ZM166.983 166.074C166.755 166.074 166.559 165.992 166.396 165.829C166.233 165.666 166.152 165.471 166.152 165.243C166.152 165.015 166.233 164.82 166.396 164.657C166.559 164.493 166.755 164.412 166.983 164.412C167.21 164.412 167.406 164.493 167.569 164.657C167.732 164.82 167.814 165.015 167.814 165.243C167.814 165.394 167.775 165.532 167.698 165.658C167.624 165.785 167.524 165.886 167.398 165.963C167.275 166.037 167.136 166.074 166.983 166.074ZM171.944 156.545V166H170.799V157.746H170.744L168.436 159.278V158.115L170.799 156.545H171.944ZM177.692 166.129C177.058 166.129 176.498 166.017 176.011 165.792C175.528 165.565 175.151 165.252 174.88 164.855C174.609 164.455 174.476 164 174.479 163.489C174.476 163.089 174.554 162.719 174.714 162.381C174.874 162.039 175.093 161.754 175.37 161.527C175.65 161.296 175.962 161.15 176.307 161.088V161.033C175.854 160.916 175.494 160.662 175.226 160.271C174.959 159.877 174.826 159.429 174.829 158.928C174.826 158.447 174.948 158.018 175.194 157.64C175.44 157.261 175.779 156.962 176.21 156.744C176.644 156.525 177.138 156.416 177.692 156.416C178.239 156.416 178.729 156.525 179.16 156.744C179.591 156.962 179.929 157.261 180.175 157.64C180.425 158.018 180.551 158.447 180.554 158.928C180.551 159.429 180.414 159.877 180.143 160.271C179.875 160.662 179.52 160.916 179.077 161.033V161.088C179.418 161.15 179.726 161.296 180 161.527C180.274 161.754 180.492 162.039 180.655 162.381C180.819 162.719 180.902 163.089 180.905 163.489C180.902 164 180.763 164.455 180.489 164.855C180.218 165.252 179.841 165.565 179.358 165.792C178.878 166.017 178.323 166.129 177.692 166.129ZM177.692 165.114C178.119 165.114 178.489 165.044 178.8 164.906C179.11 164.767 179.351 164.572 179.52 164.32C179.689 164.067 179.775 163.772 179.778 163.433C179.775 163.076 179.683 162.761 179.501 162.487C179.32 162.213 179.072 161.998 178.758 161.841C178.447 161.684 178.092 161.605 177.692 161.605C177.289 161.605 176.928 161.684 176.611 161.841C176.297 161.998 176.05 162.213 175.868 162.487C175.69 162.761 175.602 163.076 175.605 163.433C175.602 163.772 175.684 164.067 175.85 164.32C176.019 164.572 176.261 164.767 176.574 164.906C176.888 165.044 177.261 165.114 177.692 165.114ZM177.692 160.626C178.03 160.626 178.33 160.559 178.592 160.423C178.857 160.288 179.064 160.099 179.215 159.855C179.366 159.612 179.443 159.328 179.446 159.001C179.443 158.681 179.367 158.403 179.22 158.166C179.072 157.926 178.867 157.741 178.606 157.612C178.344 157.48 178.039 157.413 177.692 157.413C177.338 157.413 177.028 157.48 176.764 157.612C176.499 157.741 176.294 157.926 176.15 158.166C176.005 158.403 175.934 158.681 175.937 159.001C175.934 159.328 176.007 159.612 176.154 159.855C176.305 160.099 176.513 160.288 176.778 160.423C177.042 160.559 177.347 160.626 177.692 160.626Z" fill="#D4D4D4"/>
<path d="M143.757 192.061V191.119L147.912 184.545H148.595V186.004H148.134L144.994 190.972V191.045H150.589V192.061H143.757ZM148.207 194V191.775V191.336V184.545H149.297V194H148.207ZM152.688 194.074C152.46 194.074 152.265 193.992 152.101 193.829C151.938 193.666 151.857 193.471 151.857 193.243C151.857 193.015 151.938 192.82 152.101 192.657C152.265 192.493 152.46 192.412 152.688 192.412C152.915 192.412 153.111 192.493 153.274 192.657C153.437 192.82 153.519 193.015 153.519 193.243C153.519 193.394 153.48 193.532 153.403 193.658C153.329 193.785 153.229 193.886 153.103 193.963C152.98 194.037 152.842 194.074 152.688 194.074ZM157.649 184.545V194H156.504V185.746H156.449L154.141 187.278V186.115L156.504 184.545H157.649ZM160.664 194L164.892 185.635V185.561H160.017V184.545H166.074V185.616L161.864 194H160.664ZM166.983 194.074C166.755 194.074 166.559 193.992 166.396 193.829C166.233 193.666 166.152 193.471 166.152 193.243C166.152 193.015 166.233 192.82 166.396 192.657C166.559 192.493 166.755 192.412 166.983 192.412C167.21 192.412 167.406 192.493 167.569 192.657C167.732 192.82 167.814 193.015 167.814 193.243C167.814 193.394 167.775 193.532 167.698 193.658C167.624 193.785 167.524 193.886 167.398 193.963C167.275 194.037 167.136 194.074 166.983 194.074ZM171.944 184.545V194H170.799V185.746H170.744L168.436 187.278V186.115L170.799 184.545H171.944ZM174.959 194L179.187 185.635V185.561H174.312V184.545H180.369V185.616L176.159 194H174.959Z" fill="#D4D4D4"/>
<path d="M143.757 220.061V219.119L147.912 212.545H148.595V214.004H148.134L144.994 218.972V219.045H150.589V220.061H143.757ZM148.207 222V219.775V219.336V212.545H149.297V222H148.207ZM152.688 222.074C152.46 222.074 152.265 221.992 152.101 221.829C151.938 221.666 151.857 221.471 151.857 221.243C151.857 221.015 151.938 220.82 152.101 220.657C152.265 220.493 152.46 220.412 152.688 220.412C152.915 220.412 153.111 220.493 153.274 220.657C153.437 220.82 153.519 221.015 153.519 221.243C153.519 221.394 153.48 221.532 153.403 221.658C153.329 221.785 153.229 221.886 153.103 221.963C152.98 222.037 152.842 222.074 152.688 222.074ZM157.649 212.545V222H156.504V213.746H156.449L154.141 215.278V214.115L156.504 212.545H157.649ZM160.664 222L164.892 213.635V213.561H160.017V212.545H166.074V213.616L161.864 222H160.664ZM166.983 222.074C166.755 222.074 166.559 221.992 166.396 221.829C166.233 221.666 166.152 221.471 166.152 221.243C166.152 221.015 166.233 220.82 166.396 220.657C166.559 220.493 166.755 220.412 166.983 220.412C167.21 220.412 167.406 220.493 167.569 220.657C167.732 220.82 167.814 221.015 167.814 221.243C167.814 221.394 167.775 221.532 167.698 221.658C167.624 221.785 167.524 221.886 167.398 221.963C167.275 222.037 167.136 222.074 166.983 222.074ZM171.944 212.545V222H170.799V213.746H170.744L168.436 215.278V214.115L170.799 212.545H171.944ZM177.802 222.129C177.415 222.123 177.027 222.049 176.639 221.908C176.251 221.766 175.897 221.528 175.577 221.192C175.257 220.854 175 220.397 174.806 219.821C174.612 219.242 174.516 218.516 174.516 217.642C174.516 216.805 174.594 216.063 174.751 215.417C174.908 214.768 175.136 214.221 175.434 213.778C175.733 213.332 176.093 212.993 176.514 212.762C176.939 212.532 177.418 212.416 177.95 212.416C178.48 212.416 178.95 212.522 179.363 212.735C179.778 212.944 180.117 213.236 180.378 213.612C180.64 213.987 180.809 214.42 180.886 214.909H179.76C179.655 214.484 179.452 214.132 179.15 213.852C178.849 213.572 178.449 213.432 177.95 213.432C177.218 213.432 176.641 213.75 176.219 214.387C175.8 215.025 175.59 215.919 175.587 217.07H175.66C175.833 216.808 176.037 216.585 176.274 216.4C176.514 216.212 176.779 216.068 177.068 215.966C177.358 215.865 177.664 215.814 177.987 215.814C178.529 215.814 179.024 215.949 179.474 216.22C179.923 216.488 180.283 216.859 180.554 217.333C180.825 217.804 180.96 218.344 180.96 218.953C180.96 219.538 180.829 220.073 180.568 220.56C180.306 221.043 179.938 221.428 179.464 221.714C178.994 221.997 178.44 222.135 177.802 222.129ZM177.802 221.114C178.19 221.114 178.538 221.017 178.846 220.823C179.157 220.629 179.401 220.369 179.58 220.043C179.761 219.716 179.852 219.353 179.852 218.953C179.852 218.562 179.764 218.207 179.589 217.887C179.417 217.564 179.178 217.307 178.873 217.116C178.572 216.925 178.227 216.83 177.839 216.83C177.547 216.83 177.275 216.888 177.022 217.005C176.77 217.119 176.548 217.276 176.358 217.476C176.17 217.676 176.022 217.905 175.914 218.164C175.807 218.419 175.753 218.688 175.753 218.972C175.753 219.347 175.84 219.698 176.016 220.024C176.194 220.35 176.438 220.614 176.745 220.814C177.056 221.014 177.409 221.114 177.802 221.114Z" fill="#D4D4D4"/>
<path d="M143.757 248.061V247.119L147.912 240.545H148.595V242.004H148.134L144.994 246.972V247.045H150.589V248.061H143.757ZM148.207 250V247.775V247.336V240.545H149.297V250H148.207ZM152.688 250.074C152.46 250.074 152.265 249.992 152.101 249.829C151.938 249.666 151.857 249.471 151.857 249.243C151.857 249.015 151.938 248.82 152.101 248.657C152.265 248.493 152.46 248.412 152.688 248.412C152.915 248.412 153.111 248.493 153.274 248.657C153.437 248.82 153.519 249.015 153.519 249.243C153.519 249.394 153.48 249.532 153.403 249.658C153.329 249.785 153.229 249.886 153.103 249.963C152.98 250.037 152.842 250.074 152.688 250.074ZM157.649 240.545V250H156.504V241.746H156.449L154.141 243.278V242.115L156.504 240.545H157.649ZM160.664 250L164.892 241.635V241.561H160.017V240.545H166.074V241.616L161.864 250H160.664ZM166.983 250.074C166.755 250.074 166.559 249.992 166.396 249.829C166.233 249.666 166.152 249.471 166.152 249.243C166.152 249.015 166.233 248.82 166.396 248.657C166.559 248.493 166.755 248.412 166.983 248.412C167.21 248.412 167.406 248.493 167.569 248.657C167.732 248.82 167.814 249.015 167.814 249.243C167.814 249.394 167.775 249.532 167.698 249.658C167.624 249.785 167.524 249.886 167.398 249.963C167.275 250.037 167.136 250.074 166.983 250.074ZM171.944 240.545V250H170.799V241.746H170.744L168.436 243.278V242.115L170.799 240.545H171.944ZM177.618 250.129C177.076 250.129 176.588 250.022 176.154 249.806C175.72 249.591 175.373 249.295 175.111 248.92C174.849 248.544 174.706 248.116 174.682 247.636H175.79C175.833 248.064 176.027 248.418 176.371 248.698C176.719 248.975 177.135 249.114 177.618 249.114C178.006 249.114 178.35 249.023 178.652 248.841C178.957 248.66 179.195 248.41 179.367 248.093C179.543 247.773 179.631 247.412 179.631 247.009C179.631 246.596 179.54 246.228 179.358 245.905C179.18 245.579 178.934 245.322 178.62 245.134C178.306 244.946 177.947 244.851 177.544 244.848C177.255 244.845 176.958 244.89 176.653 244.982C176.348 245.071 176.097 245.187 175.9 245.328L174.829 245.199L175.402 240.545H180.314V241.561H176.362L176.03 244.349H176.085C176.279 244.196 176.522 244.068 176.815 243.966C177.107 243.865 177.412 243.814 177.729 243.814C178.307 243.814 178.823 243.952 179.275 244.229C179.731 244.503 180.088 244.879 180.346 245.356C180.608 245.833 180.739 246.378 180.739 246.99C180.739 247.593 180.603 248.132 180.332 248.606C180.065 249.077 179.695 249.449 179.224 249.723C178.753 249.994 178.218 250.129 177.618 250.129Z" fill="#D4D4D4"/>
<path d="M143.757 276.061V275.119L147.912 268.545H148.595V270.004H148.134L144.994 274.972V275.045H150.589V276.061H143.757ZM148.207 278V275.775V275.336V268.545H149.297V278H148.207ZM152.688 278.074C152.46 278.074 152.265 277.992 152.101 277.829C151.938 277.666 151.857 277.471 151.857 277.243C151.857 277.015 151.938 276.82 152.101 276.657C152.265 276.493 152.46 276.412 152.688 276.412C152.915 276.412 153.111 276.493 153.274 276.657C153.437 276.82 153.519 277.015 153.519 277.243C153.519 277.394 153.48 277.532 153.403 277.658C153.329 277.785 153.229 277.886 153.103 277.963C152.98 278.037 152.842 278.074 152.688 278.074ZM157.649 268.545V278H156.504V269.746H156.449L154.141 271.278V270.115L156.504 268.545H157.649ZM160.664 278L164.892 269.635V269.561H160.017V268.545H166.074V269.616L161.864 278H160.664ZM166.983 278.074C166.755 278.074 166.559 277.992 166.396 277.829C166.233 277.666 166.152 277.471 166.152 277.243C166.152 277.015 166.233 276.82 166.396 276.657C166.559 276.493 166.755 276.412 166.983 276.412C167.21 276.412 167.406 276.493 167.569 276.657C167.732 276.82 167.814 277.015 167.814 277.243C167.814 277.394 167.775 277.532 167.698 277.658C167.624 277.785 167.524 277.886 167.398 277.963C167.275 278.037 167.136 278.074 166.983 278.074ZM171.944 268.545V278H170.799V269.746H170.744L168.436 271.278V270.115L170.799 268.545H171.944ZM174.442 276.061V275.119L178.597 268.545H179.28V270.004H178.818L175.679 274.972V275.045H181.274V276.061H174.442ZM178.892 278V275.775V275.336V268.545H179.981V278H178.892Z" fill="#D4D4D4"/>
<path d="M144.791 300.074C144.563 300.074 144.368 299.992 144.205 299.829C144.042 299.666 143.96 299.471 143.96 299.243C143.96 299.015 144.042 298.82 144.205 298.657C144.368 298.493 144.563 298.412 144.791 298.412C145.019 298.412 145.214 298.493 145.377 298.657C145.541 298.82 145.622 299.015 145.622 299.243C145.622 299.394 145.584 299.532 145.507 299.658C145.433 299.785 145.333 299.886 145.207 299.963C145.084 300.037 144.945 300.074 144.791 300.074ZM148.371 300.074C148.144 300.074 147.948 299.992 147.785 299.829C147.622 299.666 147.54 299.471 147.54 299.243C147.54 299.015 147.622 298.82 147.785 298.657C147.948 298.493 148.144 298.412 148.371 298.412C148.599 298.412 148.794 298.493 148.958 298.657C149.121 298.82 149.202 299.015 149.202 299.243C149.202 299.394 149.164 299.532 149.087 299.658C149.013 299.785 148.913 299.886 148.787 299.963C148.664 300.037 148.525 300.074 148.371 300.074ZM151.951 300.074C151.724 300.074 151.528 299.992 151.365 299.829C151.202 299.666 151.12 299.471 151.12 299.243C151.12 299.015 151.202 298.82 151.365 298.657C151.528 298.493 151.724 298.412 151.951 298.412C152.179 298.412 152.375 298.493 152.538 298.657C152.701 298.82 152.782 299.015 152.782 299.243C152.782 299.394 152.744 299.532 152.667 299.658C152.593 299.785 152.493 299.886 152.367 299.963C152.244 300.037 152.105 300.074 151.951 300.074Z" fill="#858585"/>
<path d="M306 65C306 63.3431 304.657 62 303 62C301.343 62 300 63.3431 300 65V305C300 306.657 301.343 308 303 308C304.657 308 306 306.657 306 305V65Z" fill="#3C3C3C"/>
<path d="M306 65C306 63.3431 304.657 62 303 62C301.343 62 300 63.3431 300 65V99C300 100.657 301.343 102 303 102C304.657 102 306 100.657 306 99V65Z" fill="#686868"/>
<path d="M97.2656 360.988L98.4023 361.275C98.1641 362.209 97.7344 362.922 97.1133 363.414C96.4961 363.902 95.7402 364.146 94.8457 364.146C93.9199 364.146 93.166 363.959 92.584 363.584C92.0059 363.205 91.5645 362.658 91.2598 361.943C90.959 361.229 90.8086 360.461 90.8086 359.641C90.8086 358.746 90.9785 357.967 91.3184 357.303C91.6621 356.635 92.1484 356.129 92.7773 355.785C93.4102 355.438 94.1055 355.264 94.8633 355.264C95.7227 355.264 96.4453 355.482 97.0312 355.92C97.6172 356.357 98.0254 356.973 98.2559 357.766L97.1367 358.029C96.9375 357.404 96.6484 356.949 96.2695 356.664C95.8906 356.379 95.4141 356.236 94.8398 356.236C94.1797 356.236 93.627 356.395 93.1816 356.711C92.7402 357.027 92.4297 357.453 92.25 357.988C92.0703 358.52 91.9805 359.068 91.9805 359.635C91.9805 360.365 92.0859 361.004 92.2969 361.551C92.5117 362.094 92.8438 362.5 93.293 362.77C93.7422 363.039 94.2285 363.174 94.752 363.174C95.3887 363.174 95.9277 362.99 96.3691 362.623C96.8105 362.256 97.1094 361.711 97.2656 360.988ZM99.6504 364V355.41H100.705V364H99.6504ZM102.352 356.623V355.41H103.406V356.623H102.352ZM102.352 364V357.777H103.406V364H102.352ZM109.078 361.721L110.115 361.855C110.002 362.57 109.711 363.131 109.242 363.537C108.777 363.939 108.205 364.141 107.525 364.141C106.674 364.141 105.988 363.863 105.469 363.309C104.953 362.75 104.695 361.951 104.695 360.912C104.695 360.24 104.807 359.652 105.029 359.148C105.252 358.645 105.59 358.268 106.043 358.018C106.5 357.764 106.996 357.637 107.531 357.637C108.207 357.637 108.76 357.809 109.189 358.152C109.619 358.492 109.895 358.977 110.016 359.605L108.99 359.764C108.893 359.346 108.719 359.031 108.469 358.82C108.223 358.609 107.924 358.504 107.572 358.504C107.041 358.504 106.609 358.695 106.277 359.078C105.945 359.457 105.779 360.059 105.779 360.883C105.779 361.719 105.939 362.326 106.26 362.705C106.58 363.084 106.998 363.273 107.514 363.273C107.928 363.273 108.273 363.146 108.551 362.893C108.828 362.639 109.004 362.248 109.078 361.721ZM111.023 364V355.41H112.078V360.309L114.574 357.777H115.939L113.561 360.086L116.18 364H114.879L112.822 360.818L112.078 361.533V364H111.023ZM122.086 364L119.719 357.777H120.832L122.168 361.504C122.312 361.906 122.445 362.324 122.566 362.758C122.66 362.43 122.791 362.035 122.959 361.574L124.342 357.777H125.426L123.07 364H122.086ZM130.617 361.996L131.707 362.131C131.535 362.768 131.217 363.262 130.752 363.613C130.287 363.965 129.693 364.141 128.971 364.141C128.061 364.141 127.338 363.861 126.803 363.303C126.271 362.74 126.006 361.953 126.006 360.941C126.006 359.895 126.275 359.082 126.814 358.504C127.354 357.926 128.053 357.637 128.912 357.637C129.744 357.637 130.424 357.92 130.951 358.486C131.479 359.053 131.742 359.85 131.742 360.877C131.742 360.939 131.74 361.033 131.736 361.158H127.096C127.135 361.842 127.328 362.365 127.676 362.729C128.023 363.092 128.457 363.273 128.977 363.273C129.363 363.273 129.693 363.172 129.967 362.969C130.24 362.766 130.457 362.441 130.617 361.996ZM127.154 360.291H130.629C130.582 359.768 130.449 359.375 130.23 359.113C129.895 358.707 129.459 358.504 128.924 358.504C128.439 358.504 128.031 358.666 127.699 358.99C127.371 359.314 127.189 359.748 127.154 360.291ZM133.025 364V357.777H133.975V358.721C134.217 358.279 134.439 357.988 134.643 357.848C134.85 357.707 135.076 357.637 135.322 357.637C135.678 357.637 136.039 357.75 136.406 357.977L136.043 358.955C135.785 358.803 135.527 358.727 135.27 358.727C135.039 358.727 134.832 358.797 134.648 358.938C134.465 359.074 134.334 359.266 134.256 359.512C134.139 359.887 134.08 360.297 134.08 360.742V364H133.025ZM136.611 362.143L137.654 361.979C137.713 362.396 137.875 362.717 138.141 362.939C138.41 363.162 138.785 363.273 139.266 363.273C139.75 363.273 140.109 363.176 140.344 362.98C140.578 362.781 140.695 362.549 140.695 362.283C140.695 362.045 140.592 361.857 140.385 361.721C140.24 361.627 139.881 361.508 139.307 361.363C138.533 361.168 137.996 361 137.695 360.859C137.398 360.715 137.172 360.518 137.016 360.268C136.863 360.014 136.787 359.734 136.787 359.43C136.787 359.152 136.85 358.896 136.975 358.662C137.104 358.424 137.277 358.227 137.496 358.07C137.66 357.949 137.883 357.848 138.164 357.766C138.449 357.68 138.754 357.637 139.078 357.637C139.566 357.637 139.994 357.707 140.361 357.848C140.732 357.988 141.006 358.18 141.182 358.422C141.357 358.66 141.479 358.98 141.545 359.383L140.514 359.523C140.467 359.203 140.33 358.953 140.104 358.773C139.881 358.594 139.564 358.504 139.154 358.504C138.67 358.504 138.324 358.584 138.117 358.744C137.91 358.904 137.807 359.092 137.807 359.307C137.807 359.443 137.85 359.566 137.936 359.676C138.021 359.789 138.156 359.883 138.34 359.957C138.445 359.996 138.756 360.086 139.271 360.227C140.018 360.426 140.537 360.59 140.83 360.719C141.127 360.844 141.359 361.027 141.527 361.27C141.695 361.512 141.779 361.812 141.779 362.172C141.779 362.523 141.676 362.855 141.469 363.168C141.266 363.477 140.971 363.717 140.584 363.889C140.197 364.057 139.76 364.141 139.271 364.141C138.463 364.141 137.846 363.973 137.42 363.637C136.998 363.301 136.729 362.803 136.611 362.143ZM143.039 356.623V355.41H144.094V356.623H143.039ZM143.039 364V357.777H144.094V364H143.039ZM145.312 360.889C145.312 359.736 145.633 358.883 146.273 358.328C146.809 357.867 147.461 357.637 148.23 357.637C149.086 357.637 149.785 357.918 150.328 358.48C150.871 359.039 151.143 359.812 151.143 360.801C151.143 361.602 151.021 362.232 150.779 362.693C150.541 363.15 150.191 363.506 149.73 363.76C149.273 364.014 148.773 364.141 148.23 364.141C147.359 364.141 146.654 363.861 146.115 363.303C145.58 362.744 145.312 361.939 145.312 360.889ZM146.396 360.889C146.396 361.686 146.57 362.283 146.918 362.682C147.266 363.076 147.703 363.273 148.23 363.273C148.754 363.273 149.189 363.074 149.537 362.676C149.885 362.277 150.059 361.67 150.059 360.854C150.059 360.084 149.883 359.502 149.531 359.107C149.184 358.709 148.75 358.51 148.23 358.51C147.703 358.51 147.266 358.707 146.918 359.102C146.57 359.496 146.396 360.092 146.396 360.889ZM152.385 364V357.777H153.334V358.662C153.791 357.979 154.451 357.637 155.314 357.637C155.689 357.637 156.033 357.705 156.346 357.842C156.662 357.975 156.898 358.15 157.055 358.369C157.211 358.588 157.32 358.848 157.383 359.148C157.422 359.344 157.441 359.686 157.441 360.174V364H156.387V360.215C156.387 359.785 156.346 359.465 156.264 359.254C156.182 359.039 156.035 358.869 155.824 358.744C155.617 358.615 155.373 358.551 155.092 358.551C154.643 358.551 154.254 358.693 153.926 358.979C153.602 359.264 153.439 359.805 153.439 360.602V364H152.385ZM161.982 362.143L163.025 361.979C163.084 362.396 163.246 362.717 163.512 362.939C163.781 363.162 164.156 363.273 164.637 363.273C165.121 363.273 165.48 363.176 165.715 362.98C165.949 362.781 166.066 362.549 166.066 362.283C166.066 362.045 165.963 361.857 165.756 361.721C165.611 361.627 165.252 361.508 164.678 361.363C163.904 361.168 163.367 361 163.066 360.859C162.77 360.715 162.543 360.518 162.387 360.268C162.234 360.014 162.158 359.734 162.158 359.43C162.158 359.152 162.221 358.896 162.346 358.662C162.475 358.424 162.648 358.227 162.867 358.07C163.031 357.949 163.254 357.848 163.535 357.766C163.82 357.68 164.125 357.637 164.449 357.637C164.938 357.637 165.365 357.707 165.732 357.848C166.104 357.988 166.377 358.18 166.553 358.422C166.729 358.66 166.85 358.98 166.916 359.383L165.885 359.523C165.838 359.203 165.701 358.953 165.475 358.773C165.252 358.594 164.936 358.504 164.525 358.504C164.041 358.504 163.695 358.584 163.488 358.744C163.281 358.904 163.178 359.092 163.178 359.307C163.178 359.443 163.221 359.566 163.307 359.676C163.393 359.789 163.527 359.883 163.711 359.957C163.816 359.996 164.127 360.086 164.643 360.227C165.389 360.426 165.908 360.59 166.201 360.719C166.498 360.844 166.73 361.027 166.898 361.27C167.066 361.512 167.15 361.812 167.15 362.172C167.15 362.523 167.047 362.855 166.84 363.168C166.637 363.477 166.342 363.717 165.955 363.889C165.568 364.057 165.131 364.141 164.643 364.141C163.834 364.141 163.217 363.973 162.791 363.637C162.369 363.301 162.1 362.803 161.982 362.143ZM170.707 363.057L170.859 363.988C170.562 364.051 170.297 364.082 170.062 364.082C169.68 364.082 169.383 364.021 169.172 363.9C168.961 363.779 168.812 363.621 168.727 363.426C168.641 363.227 168.598 362.811 168.598 362.178V358.598H167.824V357.777H168.598V356.236L169.646 355.604V357.777H170.707V358.598H169.646V362.236C169.646 362.537 169.664 362.73 169.699 362.816C169.738 362.902 169.799 362.971 169.881 363.021C169.967 363.072 170.088 363.098 170.244 363.098C170.361 363.098 170.516 363.084 170.707 363.057ZM171.732 364V357.777H172.682V358.721C172.924 358.279 173.146 357.988 173.35 357.848C173.557 357.707 173.783 357.637 174.029 357.637C174.385 357.637 174.746 357.75 175.113 357.977L174.75 358.955C174.492 358.803 174.234 358.727 173.977 358.727C173.746 358.727 173.539 358.797 173.355 358.938C173.172 359.074 173.041 359.266 172.963 359.512C172.846 359.887 172.787 360.297 172.787 360.742V364H171.732ZM175.746 356.623V355.41H176.801V356.623H175.746ZM175.746 364V357.777H176.801V364H175.746ZM178.412 364V357.777H179.361V358.662C179.818 357.979 180.479 357.637 181.342 357.637C181.717 357.637 182.061 357.705 182.373 357.842C182.689 357.975 182.926 358.15 183.082 358.369C183.238 358.588 183.348 358.848 183.41 359.148C183.449 359.344 183.469 359.686 183.469 360.174V364H182.414V360.215C182.414 359.785 182.373 359.465 182.291 359.254C182.209 359.039 182.062 358.869 181.852 358.744C181.645 358.615 181.4 358.551 181.119 358.551C180.67 358.551 180.281 358.693 179.953 358.979C179.629 359.264 179.467 359.805 179.467 360.602V364H178.412ZM184.898 364.516L185.924 364.668C185.967 364.984 186.086 365.215 186.281 365.359C186.543 365.555 186.9 365.652 187.354 365.652C187.842 365.652 188.219 365.555 188.484 365.359C188.75 365.164 188.93 364.891 189.023 364.539C189.078 364.324 189.104 363.873 189.1 363.186C188.639 363.729 188.064 364 187.377 364C186.521 364 185.859 363.691 185.391 363.074C184.922 362.457 184.688 361.717 184.688 360.854C184.688 360.26 184.795 359.713 185.01 359.213C185.225 358.709 185.535 358.32 185.941 358.047C186.352 357.773 186.832 357.637 187.383 357.637C188.117 357.637 188.723 357.934 189.199 358.527V357.777H190.172V363.156C190.172 364.125 190.072 364.811 189.873 365.213C189.678 365.619 189.365 365.939 188.936 366.174C188.51 366.408 187.984 366.525 187.359 366.525C186.617 366.525 186.018 366.357 185.561 366.021C185.104 365.689 184.883 365.188 184.898 364.516ZM185.771 360.777C185.771 361.594 185.934 362.189 186.258 362.564C186.582 362.939 186.988 363.127 187.477 363.127C187.961 363.127 188.367 362.941 188.695 362.57C189.023 362.195 189.188 361.609 189.188 360.812C189.188 360.051 189.018 359.477 188.678 359.09C188.342 358.703 187.936 358.51 187.459 358.51C186.99 358.51 186.592 358.701 186.264 359.084C185.936 359.463 185.771 360.027 185.771 360.777ZM194.719 360.889C194.719 359.736 195.039 358.883 195.68 358.328C196.215 357.867 196.867 357.637 197.637 357.637C198.492 357.637 199.191 357.918 199.734 358.48C200.277 359.039 200.549 359.812 200.549 360.801C200.549 361.602 200.428 362.232 200.186 362.693C199.947 363.15 199.598 363.506 199.137 363.76C198.68 364.014 198.18 364.141 197.637 364.141C196.766 364.141 196.061 363.861 195.521 363.303C194.986 362.744 194.719 361.939 194.719 360.889ZM195.803 360.889C195.803 361.686 195.977 362.283 196.324 362.682C196.672 363.076 197.109 363.273 197.637 363.273C198.16 363.273 198.596 363.074 198.943 362.676C199.291 362.277 199.465 361.67 199.465 360.854C199.465 360.084 199.289 359.502 198.938 359.107C198.59 358.709 198.156 358.51 197.637 358.51C197.109 358.51 196.672 358.707 196.324 359.102C195.977 359.496 195.803 360.092 195.803 360.889ZM201.779 364V357.777H202.729V358.721C202.971 358.279 203.193 357.988 203.396 357.848C203.604 357.707 203.83 357.637 204.076 357.637C204.432 357.637 204.793 357.75 205.16 357.977L204.797 358.955C204.539 358.803 204.281 358.727 204.023 358.727C203.793 358.727 203.586 358.797 203.402 358.938C203.219 359.074 203.088 359.266 203.01 359.512C202.893 359.887 202.834 360.297 202.834 360.742V364H201.779ZM215.188 358.132L211.852 361.468L208.516 358.132H215.188ZM221.801 363.057L221.953 363.988C221.656 364.051 221.391 364.082 221.156 364.082C220.773 364.082 220.477 364.021 220.266 363.9C220.055 363.779 219.906 363.621 219.82 363.426C219.734 363.227 219.691 362.811 219.691 362.178V358.598H218.918V357.777H219.691V356.236L220.74 355.604V357.777H221.801V358.598H220.74V362.236C220.74 362.537 220.758 362.73 220.793 362.816C220.832 362.902 220.893 362.971 220.975 363.021C221.061 363.072 221.182 363.098 221.338 363.098C221.455 363.098 221.609 363.084 221.801 363.057ZM222.445 360.889C222.445 359.736 222.766 358.883 223.406 358.328C223.941 357.867 224.594 357.637 225.363 357.637C226.219 357.637 226.918 357.918 227.461 358.48C228.004 359.039 228.275 359.812 228.275 360.801C228.275 361.602 228.154 362.232 227.912 362.693C227.674 363.15 227.324 363.506 226.863 363.76C226.406 364.014 225.906 364.141 225.363 364.141C224.492 364.141 223.787 363.861 223.248 363.303C222.713 362.744 222.445 361.939 222.445 360.889ZM223.529 360.889C223.529 361.686 223.703 362.283 224.051 362.682C224.398 363.076 224.836 363.273 225.363 363.273C225.887 363.273 226.322 363.074 226.67 362.676C227.018 362.277 227.191 361.67 227.191 360.854C227.191 360.084 227.016 359.502 226.664 359.107C226.316 358.709 225.883 358.51 225.363 358.51C224.836 358.51 224.398 358.707 224.051 359.102C223.703 359.496 223.529 360.092 223.529 360.889ZM232.465 360.889C232.465 359.736 232.785 358.883 233.426 358.328C233.961 357.867 234.613 357.637 235.383 357.637C236.238 357.637 236.938 357.918 237.48 358.48C238.023 359.039 238.295 359.812 238.295 360.801C238.295 361.602 238.174 362.232 237.932 362.693C237.693 363.15 237.344 363.506 236.883 363.76C236.426 364.014 235.926 364.141 235.383 364.141C234.512 364.141 233.807 363.861 233.268 363.303C232.732 362.744 232.465 361.939 232.465 360.889ZM233.549 360.889C233.549 361.686 233.723 362.283 234.07 362.682C234.418 363.076 234.855 363.273 235.383 363.273C235.906 363.273 236.342 363.074 236.689 362.676C237.037 362.277 237.211 361.67 237.211 360.854C237.211 360.084 237.035 359.502 236.684 359.107C236.336 358.709 235.902 358.51 235.383 358.51C234.855 358.51 234.418 358.707 234.07 359.102C233.723 359.496 233.549 360.092 233.549 360.889ZM239.537 366.385V357.777H240.498V358.586C240.725 358.27 240.98 358.033 241.266 357.877C241.551 357.717 241.896 357.637 242.303 357.637C242.834 357.637 243.303 357.773 243.709 358.047C244.115 358.32 244.422 358.707 244.629 359.207C244.836 359.703 244.939 360.248 244.939 360.842C244.939 361.479 244.824 362.053 244.594 362.564C244.367 363.072 244.035 363.463 243.598 363.736C243.164 364.006 242.707 364.141 242.227 364.141C241.875 364.141 241.559 364.066 241.277 363.918C241 363.77 240.771 363.582 240.592 363.355V366.385H239.537ZM240.492 360.924C240.492 361.725 240.654 362.316 240.979 362.699C241.303 363.082 241.695 363.273 242.156 363.273C242.625 363.273 243.025 363.076 243.357 362.682C243.693 362.283 243.861 361.668 243.861 360.836C243.861 360.043 243.697 359.449 243.369 359.055C243.045 358.66 242.656 358.463 242.203 358.463C241.754 358.463 241.355 358.674 241.008 359.096C240.664 359.514 240.492 360.123 240.492 360.924ZM250.477 361.996L251.566 362.131C251.395 362.768 251.076 363.262 250.611 363.613C250.146 363.965 249.553 364.141 248.83 364.141C247.92 364.141 247.197 363.861 246.662 363.303C246.131 362.74 245.865 361.953 245.865 360.941C245.865 359.895 246.135 359.082 246.674 358.504C247.213 357.926 247.912 357.637 248.771 357.637C249.604 357.637 250.283 357.92 250.811 358.486C251.338 359.053 251.602 359.85 251.602 360.877C251.602 360.939 251.6 361.033 251.596 361.158H246.955C246.994 361.842 247.188 362.365 247.535 362.729C247.883 363.092 248.316 363.273 248.836 363.273C249.223 363.273 249.553 363.172 249.826 362.969C250.1 362.766 250.316 362.441 250.477 361.996ZM247.014 360.291H250.488C250.441 359.768 250.309 359.375 250.09 359.113C249.754 358.707 249.318 358.504 248.783 358.504C248.299 358.504 247.891 358.666 247.559 358.99C247.23 359.314 247.049 359.748 247.014 360.291ZM252.896 364V357.777H253.846V358.662C254.303 357.979 254.963 357.637 255.826 357.637C256.201 357.637 256.545 357.705 256.857 357.842C257.174 357.975 257.41 358.15 257.566 358.369C257.723 358.588 257.832 358.848 257.895 359.148C257.934 359.344 257.953 359.686 257.953 360.174V364H256.898V360.215C256.898 359.785 256.857 359.465 256.775 359.254C256.693 359.039 256.547 358.869 256.336 358.744C256.129 358.615 255.885 358.551 255.604 358.551C255.154 358.551 254.766 358.693 254.438 358.979C254.113 359.264 253.951 359.805 253.951 360.602V364H252.896ZM266.953 364V363.215C266.559 363.832 265.979 364.141 265.213 364.141C264.717 364.141 264.26 364.004 263.842 363.73C263.428 363.457 263.105 363.076 262.875 362.588C262.648 362.096 262.535 361.531 262.535 360.895C262.535 360.273 262.639 359.711 262.846 359.207C263.053 358.699 263.363 358.311 263.777 358.041C264.191 357.771 264.654 357.637 265.166 357.637C265.541 357.637 265.875 357.717 266.168 357.877C266.461 358.033 266.699 358.238 266.883 358.492V355.41H267.932V364H266.953ZM263.619 360.895C263.619 361.691 263.787 362.287 264.123 362.682C264.459 363.076 264.855 363.273 265.312 363.273C265.773 363.273 266.164 363.086 266.484 362.711C266.809 362.332 266.971 361.756 266.971 360.982C266.971 360.131 266.807 359.506 266.479 359.107C266.15 358.709 265.746 358.51 265.266 358.51C264.797 358.51 264.404 358.701 264.088 359.084C263.775 359.467 263.619 360.07 263.619 360.895ZM269.584 364V357.777H270.533V358.721C270.775 358.279 270.998 357.988 271.201 357.848C271.408 357.707 271.635 357.637 271.881 357.637C272.236 357.637 272.598 357.75 272.965 357.977L272.602 358.955C272.344 358.803 272.086 358.727 271.828 358.727C271.598 358.727 271.391 358.797 271.207 358.938C271.023 359.074 270.893 359.266 270.814 359.512C270.697 359.887 270.639 360.297 270.639 360.742V364H269.584ZM273.199 360.889C273.199 359.736 273.52 358.883 274.16 358.328C274.695 357.867 275.348 357.637 276.117 357.637C276.973 357.637 277.672 357.918 278.215 358.48C278.758 359.039 279.029 359.812 279.029 360.801C279.029 361.602 278.908 362.232 278.666 362.693C278.428 363.15 278.078 363.506 277.617 363.76C277.16 364.014 276.66 364.141 276.117 364.141C275.246 364.141 274.541 363.861 274.002 363.303C273.467 362.744 273.199 361.939 273.199 360.889ZM274.283 360.889C274.283 361.686 274.457 362.283 274.805 362.682C275.152 363.076 275.59 363.273 276.117 363.273C276.641 363.273 277.076 363.074 277.424 362.676C277.771 362.277 277.945 361.67 277.945 360.854C277.945 360.084 277.77 359.502 277.418 359.107C277.07 358.709 276.637 358.51 276.117 358.51C275.59 358.51 275.152 358.707 274.805 359.102C274.457 359.496 274.283 360.092 274.283 360.889ZM280.271 366.385V357.777H281.232V358.586C281.459 358.27 281.715 358.033 282 357.877C282.285 357.717 282.631 357.637 283.037 357.637C283.568 357.637 284.037 357.773 284.443 358.047C284.85 358.32 285.156 358.707 285.363 359.207C285.57 359.703 285.674 360.248 285.674 360.842C285.674 361.479 285.559 362.053 285.328 362.564C285.102 363.072 284.77 363.463 284.332 363.736C283.898 364.006 283.441 364.141 282.961 364.141C282.609 364.141 282.293 364.066 282.012 363.918C281.734 363.77 281.506 363.582 281.326 363.355V366.385H280.271ZM281.227 360.924C281.227 361.725 281.389 362.316 281.713 362.699C282.037 363.082 282.43 363.273 282.891 363.273C283.359 363.273 283.76 363.076 284.092 362.682C284.428 362.283 284.596 361.668 284.596 360.836C284.596 360.043 284.432 359.449 284.104 359.055C283.779 358.66 283.391 358.463 282.938 358.463C282.488 358.463 282.09 358.674 281.742 359.096C281.398 359.514 281.227 360.123 281.227 360.924ZM290.988 364V363.215C290.594 363.832 290.014 364.141 289.248 364.141C288.752 364.141 288.295 364.004 287.877 363.73C287.463 363.457 287.141 363.076 286.91 362.588C286.684 362.096 286.57 361.531 286.57 360.895C286.57 360.273 286.674 359.711 286.881 359.207C287.088 358.699 287.398 358.311 287.812 358.041C288.227 357.771 288.689 357.637 289.201 357.637C289.576 357.637 289.91 357.717 290.203 357.877C290.496 358.033 290.734 358.238 290.918 358.492V355.41H291.967V364H290.988ZM287.654 360.895C287.654 361.691 287.822 362.287 288.158 362.682C288.494 363.076 288.891 363.273 289.348 363.273C289.809 363.273 290.199 363.086 290.52 362.711C290.844 362.332 291.006 361.756 291.006 360.982C291.006 360.131 290.842 359.506 290.514 359.107C290.186 358.709 289.781 358.51 289.301 358.51C288.832 358.51 288.439 358.701 288.123 359.084C287.811 359.467 287.654 360.07 287.654 360.895ZM293.238 360.889C293.238 359.736 293.559 358.883 294.199 358.328C294.734 357.867 295.387 357.637 296.156 357.637C297.012 357.637 297.711 357.918 298.254 358.48C298.797 359.039 299.068 359.812 299.068 360.801C299.068 361.602 298.947 362.232 298.705 362.693C298.467 363.15 298.117 363.506 297.656 363.76C297.199 364.014 296.699 364.141 296.156 364.141C295.285 364.141 294.58 363.861 294.041 363.303C293.506 362.744 293.238 361.939 293.238 360.889ZM294.322 360.889C294.322 361.686 294.496 362.283 294.844 362.682C295.191 363.076 295.629 363.273 296.156 363.273C296.68 363.273 297.115 363.074 297.463 362.676C297.811 362.277 297.984 361.67 297.984 360.854C297.984 360.084 297.809 359.502 297.457 359.107C297.109 358.709 296.676 358.51 296.156 358.51C295.629 358.51 295.191 358.707 294.844 359.102C294.496 359.496 294.322 360.092 294.322 360.889ZM301.459 364L299.555 357.777H300.645L301.635 361.369L302.004 362.705C302.02 362.639 302.127 362.211 302.326 361.422L303.316 357.777H304.4L305.332 361.387L305.643 362.576L306 361.375L307.066 357.777H308.092L306.146 364H305.051L304.061 360.273L303.82 359.213L302.561 364H301.459ZM308.982 364V357.777H309.932V358.662C310.389 357.979 311.049 357.637 311.912 357.637C312.287 357.637 312.631 357.705 312.943 357.842C313.26 357.975 313.496 358.15 313.652 358.369C313.809 358.588 313.918 358.848 313.98 359.148C314.02 359.344 314.039 359.686 314.039 360.174V364H312.984V360.215C312.984 359.785 312.943 359.465 312.861 359.254C312.779 359.039 312.633 358.869 312.422 358.744C312.215 358.615 311.971 358.551 311.689 358.551C311.24 358.551 310.852 358.693 310.523 358.979C310.199 359.264 310.037 359.805 310.037 360.602V364H308.982ZM319.605 360.268V359.066H320.807V360.268H319.605ZM332.602 360.988L333.738 361.275C333.5 362.209 333.07 362.922 332.449 363.414C331.832 363.902 331.076 364.146 330.182 364.146C329.256 364.146 328.502 363.959 327.92 363.584C327.342 363.205 326.9 362.658 326.596 361.943C326.295 361.229 326.145 360.461 326.145 359.641C326.145 358.746 326.314 357.967 326.654 357.303C326.998 356.635 327.484 356.129 328.113 355.785C328.746 355.438 329.441 355.264 330.199 355.264C331.059 355.264 331.781 355.482 332.367 355.92C332.953 356.357 333.361 356.973 333.592 357.766L332.473 358.029C332.273 357.404 331.984 356.949 331.605 356.664C331.227 356.379 330.75 356.236 330.176 356.236C329.516 356.236 328.963 356.395 328.518 356.711C328.076 357.027 327.766 357.453 327.586 357.988C327.406 358.52 327.316 359.068 327.316 359.635C327.316 360.365 327.422 361.004 327.633 361.551C327.848 362.094 328.18 362.5 328.629 362.77C329.078 363.039 329.564 363.174 330.088 363.174C330.725 363.174 331.264 362.99 331.705 362.623C332.146 362.256 332.445 361.711 332.602 360.988ZM334.986 364V355.41H336.041V364H334.986ZM337.688 356.623V355.41H338.742V356.623H337.688ZM337.688 364V357.777H338.742V364H337.688ZM344.414 361.721L345.451 361.855C345.338 362.57 345.047 363.131 344.578 363.537C344.113 363.939 343.541 364.141 342.861 364.141C342.01 364.141 341.324 363.863 340.805 363.309C340.289 362.75 340.031 361.951 340.031 360.912C340.031 360.24 340.143 359.652 340.365 359.148C340.588 358.645 340.926 358.268 341.379 358.018C341.836 357.764 342.332 357.637 342.867 357.637C343.543 357.637 344.096 357.809 344.525 358.152C344.955 358.492 345.23 358.977 345.352 359.605L344.326 359.764C344.229 359.346 344.055 359.031 343.805 358.82C343.559 358.609 343.26 358.504 342.908 358.504C342.377 358.504 341.945 358.695 341.613 359.078C341.281 359.457 341.115 360.059 341.115 360.883C341.115 361.719 341.275 362.326 341.596 362.705C341.916 363.084 342.334 363.273 342.85 363.273C343.264 363.273 343.609 363.146 343.887 362.893C344.164 362.639 344.34 362.248 344.414 361.721ZM346.359 364V355.41H347.414V360.309L349.91 357.777H351.275L348.896 360.086L351.516 364H350.215L348.158 360.818L347.414 361.533V364H346.359ZM364.014 358.867C364.533 359.434 364.982 359.865 365.361 360.162C365.74 360.455 366.098 360.674 366.434 360.818V361.082C366.047 361.27 365.672 361.51 365.309 361.803C364.945 362.092 364.512 362.518 364.008 363.08H363.557C363.924 362.295 364.309 361.691 364.711 361.27H355.365V360.678H364.711C364.414 360.299 364.207 360.018 364.09 359.834C363.973 359.65 363.799 359.328 363.568 358.867H364.014ZM372.762 364L370.395 357.777H371.508L372.844 361.504C372.988 361.906 373.121 362.324 373.242 362.758C373.336 362.43 373.467 362.035 373.635 361.574L375.018 357.777H376.102L373.746 364H372.762ZM381.293 361.996L382.383 362.131C382.211 362.768 381.893 363.262 381.428 363.613C380.963 363.965 380.369 364.141 379.646 364.141C378.736 364.141 378.014 363.861 377.479 363.303C376.947 362.74 376.682 361.953 376.682 360.941C376.682 359.895 376.951 359.082 377.49 358.504C378.029 357.926 378.729 357.637 379.588 357.637C380.42 357.637 381.1 357.92 381.627 358.486C382.154 359.053 382.418 359.85 382.418 360.877C382.418 360.939 382.416 361.033 382.412 361.158H377.771C377.811 361.842 378.004 362.365 378.352 362.729C378.699 363.092 379.133 363.273 379.652 363.273C380.039 363.273 380.369 363.172 380.643 362.969C380.916 362.766 381.133 362.441 381.293 361.996ZM377.83 360.291H381.305C381.258 359.768 381.125 359.375 380.906 359.113C380.57 358.707 380.135 358.504 379.6 358.504C379.115 358.504 378.707 358.666 378.375 358.99C378.047 359.314 377.865 359.748 377.83 360.291ZM383.701 364V357.777H384.65V358.721C384.893 358.279 385.115 357.988 385.318 357.848C385.525 357.707 385.752 357.637 385.998 357.637C386.354 357.637 386.715 357.75 387.082 357.977L386.719 358.955C386.461 358.803 386.203 358.727 385.945 358.727C385.715 358.727 385.508 358.797 385.324 358.938C385.141 359.074 385.01 359.266 384.932 359.512C384.814 359.887 384.756 360.297 384.756 360.742V364H383.701ZM387.287 362.143L388.33 361.979C388.389 362.396 388.551 362.717 388.816 362.939C389.086 363.162 389.461 363.273 389.941 363.273C390.426 363.273 390.785 363.176 391.02 362.98C391.254 362.781 391.371 362.549 391.371 362.283C391.371 362.045 391.268 361.857 391.061 361.721C390.916 361.627 390.557 361.508 389.982 361.363C389.209 361.168 388.672 361 388.371 360.859C388.074 360.715 387.848 360.518 387.691 360.268C387.539 360.014 387.463 359.734 387.463 359.43C387.463 359.152 387.525 358.896 387.65 358.662C387.779 358.424 387.953 358.227 388.172 358.07C388.336 357.949 388.559 357.848 388.84 357.766C389.125 357.68 389.43 357.637 389.754 357.637C390.242 357.637 390.67 357.707 391.037 357.848C391.408 357.988 391.682 358.18 391.857 358.422C392.033 358.66 392.154 358.98 392.221 359.383L391.189 359.523C391.143 359.203 391.006 358.953 390.779 358.773C390.557 358.594 390.24 358.504 389.83 358.504C389.346 358.504 389 358.584 388.793 358.744C388.586 358.904 388.482 359.092 388.482 359.307C388.482 359.443 388.525 359.566 388.611 359.676C388.697 359.789 388.832 359.883 389.016 359.957C389.121 359.996 389.432 360.086 389.947 360.227C390.693 360.426 391.213 360.59 391.506 360.719C391.803 360.844 392.035 361.027 392.203 361.27C392.371 361.512 392.455 361.812 392.455 362.172C392.455 362.523 392.352 362.855 392.145 363.168C391.941 363.477 391.646 363.717 391.26 363.889C390.873 364.057 390.436 364.141 389.947 364.141C389.139 364.141 388.521 363.973 388.096 363.637C387.674 363.301 387.404 362.803 387.287 362.143ZM393.715 356.623V355.41H394.77V356.623H393.715ZM393.715 364V357.777H394.77V364H393.715ZM395.988 360.889C395.988 359.736 396.309 358.883 396.949 358.328C397.484 357.867 398.137 357.637 398.906 357.637C399.762 357.637 400.461 357.918 401.004 358.48C401.547 359.039 401.818 359.812 401.818 360.801C401.818 361.602 401.697 362.232 401.455 362.693C401.217 363.15 400.867 363.506 400.406 363.76C399.949 364.014 399.449 364.141 398.906 364.141C398.035 364.141 397.33 363.861 396.791 363.303C396.256 362.744 395.988 361.939 395.988 360.889ZM397.072 360.889C397.072 361.686 397.246 362.283 397.594 362.682C397.941 363.076 398.379 363.273 398.906 363.273C399.43 363.273 399.865 363.074 400.213 362.676C400.561 362.277 400.734 361.67 400.734 360.854C400.734 360.084 400.559 359.502 400.207 359.107C399.859 358.709 399.426 358.51 398.906 358.51C398.379 358.51 397.941 358.707 397.594 359.102C397.246 359.496 397.072 360.092 397.072 360.889ZM403.061 364V357.777H404.01V358.662C404.467 357.979 405.127 357.637 405.99 357.637C406.365 357.637 406.709 357.705 407.021 357.842C407.338 357.975 407.574 358.15 407.73 358.369C407.887 358.588 407.996 358.848 408.059 359.148C408.098 359.344 408.117 359.686 408.117 360.174V364H407.062V360.215C407.062 359.785 407.021 359.465 406.939 359.254C406.857 359.039 406.711 358.869 406.5 358.744C406.293 358.615 406.049 358.551 405.768 358.551C405.318 358.551 404.93 358.693 404.602 358.979C404.277 359.264 404.115 359.805 404.115 360.602V364H403.061ZM415.383 363.057L415.535 363.988C415.238 364.051 414.973 364.082 414.738 364.082C414.355 364.082 414.059 364.021 413.848 363.9C413.637 363.779 413.488 363.621 413.402 363.426C413.316 363.227 413.273 362.811 413.273 362.178V358.598H412.5V357.777H413.273V356.236L414.322 355.604V357.777H415.383V358.598H414.322V362.236C414.322 362.537 414.34 362.73 414.375 362.816C414.414 362.902 414.475 362.971 414.557 363.021C414.643 363.072 414.764 363.098 414.92 363.098C415.037 363.098 415.191 363.084 415.383 363.057ZM416.027 360.889C416.027 359.736 416.348 358.883 416.988 358.328C417.523 357.867 418.176 357.637 418.945 357.637C419.801 357.637 420.5 357.918 421.043 358.48C421.586 359.039 421.857 359.812 421.857 360.801C421.857 361.602 421.736 362.232 421.494 362.693C421.256 363.15 420.906 363.506 420.445 363.76C419.988 364.014 419.488 364.141 418.945 364.141C418.074 364.141 417.369 363.861 416.83 363.303C416.295 362.744 416.027 361.939 416.027 360.889ZM417.111 360.889C417.111 361.686 417.285 362.283 417.633 362.682C417.98 363.076 418.418 363.273 418.945 363.273C419.469 363.273 419.904 363.074 420.252 362.676C420.6 362.277 420.773 361.67 420.773 360.854C420.773 360.084 420.598 359.502 420.246 359.107C419.898 358.709 419.465 358.51 418.945 358.51C418.418 358.51 417.98 358.707 417.633 359.102C417.285 359.496 417.111 360.092 417.111 360.889ZM430.518 364V363.086C430.033 363.789 429.375 364.141 428.543 364.141C428.176 364.141 427.832 364.07 427.512 363.93C427.195 363.789 426.959 363.613 426.803 363.402C426.65 363.188 426.543 362.926 426.48 362.617C426.438 362.41 426.416 362.082 426.416 361.633V357.777H427.471V361.229C427.471 361.779 427.492 362.15 427.535 362.342C427.602 362.619 427.742 362.838 427.957 362.998C428.172 363.154 428.438 363.232 428.754 363.232C429.07 363.232 429.367 363.152 429.645 362.992C429.922 362.828 430.117 362.607 430.23 362.33C430.348 362.049 430.406 361.643 430.406 361.111V357.777H431.461V364H430.518ZM433.119 366.385V357.777H434.08V358.586C434.307 358.27 434.562 358.033 434.848 357.877C435.133 357.717 435.479 357.637 435.885 357.637C436.416 357.637 436.885 357.773 437.291 358.047C437.697 358.32 438.004 358.707 438.211 359.207C438.418 359.703 438.521 360.248 438.521 360.842C438.521 361.479 438.406 362.053 438.176 362.564C437.949 363.072 437.617 363.463 437.18 363.736C436.746 364.006 436.289 364.141 435.809 364.141C435.457 364.141 435.141 364.066 434.859 363.918C434.582 363.77 434.354 363.582 434.174 363.355V366.385H433.119ZM434.074 360.924C434.074 361.725 434.236 362.316 434.561 362.699C434.885 363.082 435.277 363.273 435.738 363.273C436.207 363.273 436.607 363.076 436.939 362.682C437.275 362.283 437.443 361.668 437.443 360.836C437.443 360.043 437.279 359.449 436.951 359.055C436.627 358.66 436.238 358.463 435.785 358.463C435.336 358.463 434.938 358.674 434.59 359.096C434.246 359.514 434.074 360.123 434.074 360.924ZM443.836 364V363.215C443.441 363.832 442.861 364.141 442.096 364.141C441.6 364.141 441.143 364.004 440.725 363.73C440.311 363.457 439.988 363.076 439.758 362.588C439.531 362.096 439.418 361.531 439.418 360.895C439.418 360.273 439.521 359.711 439.729 359.207C439.936 358.699 440.246 358.311 440.66 358.041C441.074 357.771 441.537 357.637 442.049 357.637C442.424 357.637 442.758 357.717 443.051 357.877C443.344 358.033 443.582 358.238 443.766 358.492V355.41H444.814V364H443.836ZM440.502 360.895C440.502 361.691 440.67 362.287 441.006 362.682C441.342 363.076 441.738 363.273 442.195 363.273C442.656 363.273 443.047 363.086 443.367 362.711C443.691 362.332 443.854 361.756 443.854 360.982C443.854 360.131 443.689 359.506 443.361 359.107C443.033 358.709 442.629 358.51 442.148 358.51C441.68 358.51 441.287 358.701 440.971 359.084C440.658 359.467 440.502 360.07 440.502 360.895ZM450.539 363.232C450.148 363.564 449.771 363.799 449.408 363.936C449.049 364.072 448.662 364.141 448.248 364.141C447.564 364.141 447.039 363.975 446.672 363.643C446.305 363.307 446.121 362.879 446.121 362.359C446.121 362.055 446.189 361.777 446.326 361.527C446.467 361.273 446.648 361.07 446.871 360.918C447.098 360.766 447.352 360.65 447.633 360.572C447.84 360.518 448.152 360.465 448.57 360.414C449.422 360.312 450.049 360.191 450.451 360.051C450.455 359.906 450.457 359.814 450.457 359.775C450.457 359.346 450.357 359.043 450.158 358.867C449.889 358.629 449.488 358.51 448.957 358.51C448.461 358.51 448.094 358.598 447.855 358.773C447.621 358.945 447.447 359.252 447.334 359.693L446.303 359.553C446.396 359.111 446.551 358.756 446.766 358.486C446.98 358.213 447.291 358.004 447.697 357.859C448.104 357.711 448.574 357.637 449.109 357.637C449.641 357.637 450.072 357.699 450.404 357.824C450.736 357.949 450.98 358.107 451.137 358.299C451.293 358.486 451.402 358.725 451.465 359.014C451.5 359.193 451.518 359.518 451.518 359.986V361.393C451.518 362.373 451.539 362.994 451.582 363.256C451.629 363.514 451.719 363.762 451.852 364H450.75C450.641 363.781 450.57 363.525 450.539 363.232ZM450.451 360.877C450.068 361.033 449.494 361.166 448.729 361.275C448.295 361.338 447.988 361.408 447.809 361.486C447.629 361.564 447.49 361.68 447.393 361.832C447.295 361.98 447.246 362.146 447.246 362.33C447.246 362.611 447.352 362.846 447.562 363.033C447.777 363.221 448.09 363.314 448.5 363.314C448.906 363.314 449.268 363.227 449.584 363.051C449.9 362.871 450.133 362.627 450.281 362.318C450.395 362.08 450.451 361.729 450.451 361.264V360.877ZM455.461 363.057L455.613 363.988C455.316 364.051 455.051 364.082 454.816 364.082C454.434 364.082 454.137 364.021 453.926 363.9C453.715 363.779 453.566 363.621 453.48 363.426C453.395 363.227 453.352 362.811 453.352 362.178V358.598H452.578V357.777H453.352V356.236L454.4 355.604V357.777H455.461V358.598H454.4V362.236C454.4 362.537 454.418 362.73 454.453 362.816C454.492 362.902 454.553 362.971 454.635 363.021C454.721 363.072 454.842 363.098 454.998 363.098C455.115 363.098 455.27 363.084 455.461 363.057ZM460.758 361.996L461.848 362.131C461.676 362.768 461.357 363.262 460.893 363.613C460.428 363.965 459.834 364.141 459.111 364.141C458.201 364.141 457.479 363.861 456.943 363.303C456.412 362.74 456.146 361.953 456.146 360.941C456.146 359.895 456.416 359.082 456.955 358.504C457.494 357.926 458.193 357.637 459.053 357.637C459.885 357.637 460.564 357.92 461.092 358.486C461.619 359.053 461.883 359.85 461.883 360.877C461.883 360.939 461.881 361.033 461.877 361.158H457.236C457.275 361.842 457.469 362.365 457.816 362.729C458.164 363.092 458.598 363.273 459.117 363.273C459.504 363.273 459.834 363.172 460.107 362.969C460.381 362.766 460.598 362.441 460.758 361.996ZM457.295 360.291H460.77C460.723 359.768 460.59 359.375 460.371 359.113C460.035 358.707 459.6 358.504 459.064 358.504C458.58 358.504 458.172 358.666 457.84 358.99C457.512 359.314 457.33 359.748 457.295 360.291ZM466.523 356.623V355.41H467.578V356.623H466.523ZM466.523 364V357.777H467.578V364H466.523ZM469.189 364V357.777H470.139V358.662C470.596 357.979 471.256 357.637 472.119 357.637C472.494 357.637 472.838 357.705 473.15 357.842C473.467 357.975 473.703 358.15 473.859 358.369C474.016 358.588 474.125 358.848 474.188 359.148C474.227 359.344 474.246 359.686 474.246 360.174V364H473.191V360.215C473.191 359.785 473.15 359.465 473.068 359.254C472.986 359.039 472.84 358.869 472.629 358.744C472.422 358.615 472.178 358.551 471.896 358.551C471.447 358.551 471.059 358.693 470.73 358.979C470.406 359.264 470.244 359.805 470.244 360.602V364H469.189ZM475.447 362.143L476.49 361.979C476.549 362.396 476.711 362.717 476.977 362.939C477.246 363.162 477.621 363.273 478.102 363.273C478.586 363.273 478.945 363.176 479.18 362.98C479.414 362.781 479.531 362.549 479.531 362.283C479.531 362.045 479.428 361.857 479.221 361.721C479.076 361.627 478.717 361.508 478.143 361.363C477.369 361.168 476.832 361 476.531 360.859C476.234 360.715 476.008 360.518 475.852 360.268C475.699 360.014 475.623 359.734 475.623 359.43C475.623 359.152 475.686 358.896 475.811 358.662C475.939 358.424 476.113 358.227 476.332 358.07C476.496 357.949 476.719 357.848 477 357.766C477.285 357.68 477.59 357.637 477.914 357.637C478.402 357.637 478.83 357.707 479.197 357.848C479.568 357.988 479.842 358.18 480.018 358.422C480.193 358.66 480.314 358.98 480.381 359.383L479.35 359.523C479.303 359.203 479.166 358.953 478.939 358.773C478.717 358.594 478.4 358.504 477.99 358.504C477.506 358.504 477.16 358.584 476.953 358.744C476.746 358.904 476.643 359.092 476.643 359.307C476.643 359.443 476.686 359.566 476.771 359.676C476.857 359.789 476.992 359.883 477.176 359.957C477.281 359.996 477.592 360.086 478.107 360.227C478.854 360.426 479.373 360.59 479.666 360.719C479.963 360.844 480.195 361.027 480.363 361.27C480.531 361.512 480.615 361.812 480.615 362.172C480.615 362.523 480.512 362.855 480.305 363.168C480.102 363.477 479.807 363.717 479.42 363.889C479.033 364.057 478.596 364.141 478.107 364.141C477.299 364.141 476.682 363.973 476.256 363.637C475.834 363.301 475.564 362.803 475.447 362.143ZM484.172 363.057L484.324 363.988C484.027 364.051 483.762 364.082 483.527 364.082C483.145 364.082 482.848 364.021 482.637 363.9C482.426 363.779 482.277 363.621 482.191 363.426C482.105 363.227 482.062 362.811 482.062 362.178V358.598H481.289V357.777H482.062V356.236L483.111 355.604V357.777H484.172V358.598H483.111V362.236C483.111 362.537 483.129 362.73 483.164 362.816C483.203 362.902 483.264 362.971 483.346 363.021C483.432 363.072 483.553 363.098 483.709 363.098C483.826 363.098 483.98 363.084 484.172 363.057ZM489.27 363.232C488.879 363.564 488.502 363.799 488.139 363.936C487.779 364.072 487.393 364.141 486.979 364.141C486.295 364.141 485.77 363.975 485.402 363.643C485.035 363.307 484.852 362.879 484.852 362.359C484.852 362.055 484.92 361.777 485.057 361.527C485.197 361.273 485.379 361.07 485.602 360.918C485.828 360.766 486.082 360.65 486.363 360.572C486.57 360.518 486.883 360.465 487.301 360.414C488.152 360.312 488.779 360.191 489.182 360.051C489.186 359.906 489.188 359.814 489.188 359.775C489.188 359.346 489.088 359.043 488.889 358.867C488.619 358.629 488.219 358.51 487.688 358.51C487.191 358.51 486.824 358.598 486.586 358.773C486.352 358.945 486.178 359.252 486.064 359.693L485.033 359.553C485.127 359.111 485.281 358.756 485.496 358.486C485.711 358.213 486.021 358.004 486.428 357.859C486.834 357.711 487.305 357.637 487.84 357.637C488.371 357.637 488.803 357.699 489.135 357.824C489.467 357.949 489.711 358.107 489.867 358.299C490.023 358.486 490.133 358.725 490.195 359.014C490.23 359.193 490.248 359.518 490.248 359.986V361.393C490.248 362.373 490.27 362.994 490.312 363.256C490.359 363.514 490.449 363.762 490.582 364H489.48C489.371 363.781 489.301 363.525 489.27 363.232ZM489.182 360.877C488.799 361.033 488.225 361.166 487.459 361.275C487.025 361.338 486.719 361.408 486.539 361.486C486.359 361.564 486.221 361.68 486.123 361.832C486.025 361.98 485.977 362.146 485.977 362.33C485.977 362.611 486.082 362.846 486.293 363.033C486.508 363.221 486.82 363.314 487.23 363.314C487.637 363.314 487.998 363.227 488.314 363.051C488.631 362.871 488.863 362.627 489.012 362.318C489.125 362.08 489.182 361.729 489.182 361.264V360.877ZM491.889 364V357.777H492.838V358.662C493.295 357.979 493.955 357.637 494.818 357.637C495.193 357.637 495.537 357.705 495.85 357.842C496.166 357.975 496.402 358.15 496.559 358.369C496.715 358.588 496.824 358.848 496.887 359.148C496.926 359.344 496.945 359.686 496.945 360.174V364H495.891V360.215C495.891 359.785 495.85 359.465 495.768 359.254C495.686 359.039 495.539 358.869 495.328 358.744C495.121 358.615 494.877 358.551 494.596 358.551C494.146 358.551 493.758 358.693 493.43 358.979C493.105 359.264 492.943 359.805 492.943 360.602V364H491.889ZM500.871 363.057L501.023 363.988C500.727 364.051 500.461 364.082 500.227 364.082C499.844 364.082 499.547 364.021 499.336 363.9C499.125 363.779 498.977 363.621 498.891 363.426C498.805 363.227 498.762 362.811 498.762 362.178V358.598H497.988V357.777H498.762V356.236L499.811 355.604V357.777H500.871V358.598H499.811V362.236C499.811 362.537 499.828 362.73 499.863 362.816C499.902 362.902 499.963 362.971 500.045 363.021C500.131 363.072 500.252 363.098 500.408 363.098C500.525 363.098 500.68 363.084 500.871 363.057ZM501.885 364V355.41H502.939V364H501.885ZM504.533 366.396L504.416 365.406C504.646 365.469 504.848 365.5 505.02 365.5C505.254 365.5 505.441 365.461 505.582 365.383C505.723 365.305 505.838 365.195 505.928 365.055C505.994 364.949 506.102 364.688 506.25 364.27C506.27 364.211 506.301 364.125 506.344 364.012L503.982 357.777H505.119L506.414 361.381C506.582 361.838 506.732 362.318 506.865 362.822C506.986 362.338 507.131 361.865 507.299 361.404L508.629 357.777H509.684L507.316 364.105C507.062 364.789 506.865 365.26 506.725 365.518C506.537 365.865 506.322 366.119 506.08 366.279C505.838 366.443 505.549 366.525 505.213 366.525C505.01 366.525 504.783 366.482 504.533 366.396Z" fill="#858585"/>
</g>
<defs>
<linearGradient id="paint0_linear_2_21" x1="0" y1="0" x2="0" y2="38000" gradientUnits="userSpaceOnUse">
<stop stop-color="#1E1E1E"/>
<stop offset="1" stop-color="#252526"/>
</linearGradient>
<clipPath id="clip0_2_21">
<rect width="600" height="380" fill="white"/>
</clipPath>
</defs>
</svg>
